<?xml version="1.0" encoding="UTF-8"?>
<svg id="_レイヤー_1" data-name=" レイヤー 1" xmlns="http://www.w3.org/2000/svg" version="1.1" viewBox="0 0 235.3 567.7">
  <defs>
    <style>
      .cls-1 {
        font-size: 12.9px;
      }

      .cls-1, .cls-2, .cls-3, .cls-4, .cls-5, .cls-6, .cls-7, .cls-8 {
        fill: #000;
      }

      .cls-1, .cls-2, .cls-5, .cls-6, .cls-9, .cls-7, .cls-8 {
        isolation: isolate;
      }

      .cls-1, .cls-2, .cls-5, .cls-6, .cls-7, .cls-8 {
        font-family: PTMono-Bold, 'PT Mono';
        font-weight: 700;
      }

      .cls-2 {
        font-size: 12px;
      }

      .cls-10, .cls-3, .cls-11 {
        stroke: #231815;
        stroke-miterlimit: 10;
      }

      .cls-10, .cls-11 {
        fill: none;
      }

      .cls-4 {
        stroke-width: 0px;
      }

      .cls-5 {
        font-size: 14.6px;
      }

      .cls-6 {
        font-size: 20px;
      }

      .cls-7 {
        font-size: 16px;
      }

      .cls-11 {
        stroke-width: .2px;
      }

      .cls-8 {
        font-size: 10px;
      }
    </style>
  </defs>
  <g class="cls-9">
    <g class="cls-9">
      <g class="cls-9">
        <text class="cls-2" transform="translate(21.3 398.4) rotate(-90)"><tspan x="0" y="0">ALLI AIR</tspan></text>
      </g>
    </g>
  </g>
  <g class="cls-9">
    <g class="cls-9">
      <g class="cls-9">
        <text class="cls-2" transform="translate(18.8 126.9) rotate(-90)"><tspan x="0" y="0">ALLI AIR</tspan></text>
      </g>
    </g>
  </g>
  <g class="cls-9">
    <g class="cls-9">
      <g class="cls-9">
        <text class="cls-7" transform="translate(58.1 552.7) rotate(-90)"><tspan x="0" y="0">name1name2</tspan></text>
      </g>
    </g>
  </g>
  <g class="cls-9">
    <g class="cls-9">
      <g class="cls-9">
        <text class="cls-8" transform="translate(38.1 126.9) rotate(-90)"><tspan x="0" y="0">name1</tspan></text>
      </g>
    </g>
    <g class="cls-9">
      <g class="cls-9">
        <text class="cls-8" transform="translate(49.1 126.9) rotate(-90)"><tspan x="0" y="0">name2</tspan></text>
      </g>
    </g>
  </g>
  <g class="cls-9">
    <g class="cls-9">
      <g class="cls-9">
        <text class="cls-8" transform="translate(65 126.9) rotate(-90)"><tspan x="0" y="0">FROM from</tspan></text>
      </g>
    </g>
    <g class="cls-9">
      <g class="cls-9">
        <text class="cls-8" transform="translate(76 126.9) rotate(-90)"><tspan x="0" y="0" xml:space="preserve">TO   to</tspan></text>
      </g>
    </g>
  </g>
  <g class="cls-9">
    <g class="cls-9">
      <g class="cls-9">
        <text class="cls-8" transform="translate(92.5 126.9) rotate(-90)"><tspan x="0" y="0">SEAT seat</tspan></text>
      </g>
    </g>
    <g class="cls-9">
      <g class="cls-9">
        <text class="cls-8" transform="translate(103.5 126.9) rotate(-90)"><tspan x="0" y="0">GATE gate</tspan></text>
      </g>
    </g>
  </g>
  <g>
    <path class="cls-4" d="M140.9,125.1h2v-1.8h-2.5v-.8h2.5v-1.8h-2v-.8h2.8v2.6h2.8v-2.1h-2.4v-.8h3.1v6.5h-3.1v-.8h2.4v-2.1h-2.8v2.6h-2.8v-.8h0Z"/>
    <path class="cls-4" d="M140.9,112.4l.4-.6c.4.4.7.6,1.1,1,.2-.4.4-.8.5-1.1l.7.4c-.2.4-.4.7-.5,1.1h.5v1h.9v-2.1h.7v2.1h1.2c.1,0,.2,0,.2-.2v-1c0-.4-.2-.4-.9-.4v-.8c.4,0,1.1,0,1.3.3.3,0,.3.4.3.6v1.6c0,.4,0,.7-.5.7h-1.6v1.1c1.3.3,1.9,1.2,2.3,2.5l-.8.4c0-.5-.2-1-.5-1.4-.3-.4-.5-.6-1-.7v1.9h-.7v-2h-.9v.9h-.4c.2.4.4.6.5,1l-.7.4c-.2-.5-.4-.9-.6-1.3-.3.3-.5.6-.7.9l-.4-.4h-.6v-3.3c.3-.2.4-.3.7-.5-.3-.4-.5-.5-.9-.9l.4-.6c.4.3.7.6,1,1,0-.2.2-.3.4-.4-.4-.4-.6-.7-1.1-1.1h0l-.2.3h0ZM141.1,116.2v1.7c.2-.4.4-.6.7-.9-.3-.4-.4-.5-.7-.8ZM141.2,115.4c.7.5,1.1,1.1,1.6,1.8v-3.7c-.4.7-1,1.3-1.6,1.8h0ZM143.5,115.9h.9v-1.1h-.9v1.1Z"/>
    <path class="cls-4" d="M140.6,108.8h6.2v2.4h-6.2v-2.4ZM141.4,110.5h1.9v-.9h-1.9v.9ZM144,110.5h2.1v-.9h-2.1v.9ZM146.6,105c.6,0,.8.3.8.8v1.1l-.8.2v-1.1c0-.1,0-.2-.3-.2h-1.6v2.7h-.7v-2.7h-.7v2.7h-.7v-1.8h-.9v1.5h-.7v-1.5h-.6v-.8h.6v-1.6h.7v1.6h.9v-1.8h.7v.8h.7v-.7h.7v.7h1.8ZM146,106.8l.5.7c-.5.4-.8.5-1.2,1l-.4-.6c.4-.4.7-.7,1.2-1.1h0Z"/>
    <path class="cls-4" d="M146.5,99.4l.6.5c-.4.5-.7,1-1.2,1.3.6.7,1.1,1.4,1.4,2.3l-.7.4c-.7-1.8-1.7-2.9-3.4-3.7l.4-.7c.6.4,1.2.7,1.8,1.1.5-.4.8-.8,1.1-1.3h0ZM143,103.7l-.6-.4c0,0,.2-.3.3-.4-.3-.3-.5-.4-.9-.7v1.6h-.7v-1.8h-.8v-.8h.8v-1.8h.7v1.9c.5.3,1,.6,1.4,1.1.2-.2.3-.3.4-.4-.5-.4-1-.8-1.6-1.1l.4-.7c1.5.8,2.5,1.8,3.3,3.3l-.7.4c-.2-.5-.4-1-.8-1.4-.4.4-.8.8-1.1,1.1h0v.2h0ZM140.8,98.4h4.8v.8h-4.8v-.8ZM140.3,97h6.2c.6,0,.8.2.8.8v1h-.8c0,0,0-.9,0-.9,0,0,0,0-.2,0h-6.1v-.8Z"/>
    <path class="cls-4" d="M140.8,93.8v-1.9c0-2.2,1.3-3.1,3-3.1s3,1.1,3,3.1v1.9h-6ZM141.6,92.8h4.4v-1c0-1.3-.7-2-2.2-2s-2.2.5-2.2,2.1v1h0Z"/>
    <path class="cls-4" d="M146.8,85.9c0,1.5-.8,2.2-2.2,2.2s-2.3-.8-2.3-2.1,1-1.8,2-1.8h.4v3.1c.8,0,1.2-.4,1.2-1.4s-.2-1.1-.5-1.4l.8-.2c.3.4.5.9.5,1.7h0ZM144.2,87.1v-2.2c-.6,0-1.1.3-1.1,1s.4,1.1,1.1,1.1h0Z"/>
    <path class="cls-4" d="M142.4,83.1v-.8h.6c-.4-.4-.7-.8-.7-1.5,0-1.1.8-1.8,2.2-1.8s2.3.8,2.3,2-.2.9-.4,1.2h2.1v.9h-6.1,0ZM145.6,82.2c.3-.3.4-.6.4-1.1,0-.8-.5-1.2-1.5-1.2s-1.4.4-1.4,1.1.3,1,.7,1.1h1.8,0Z"/>
    <path class="cls-4" d="M146.7,75.4h-.5c.4.4.7.8.7,1.4s-.5,1.4-1.3,1.4-1.4-.7-1.4-2.2v-.5h-.2c-.5,0-.8.3-.8,1s.2,1,.4,1.4l-.8.2c-.3-.4-.4-1-.4-1.7,0-1.2.6-1.8,1.5-1.8h2.9v.9h0ZM145.4,75.4h-.7v.4c0,1,.3,1.4.8,1.4s.6-.3.6-.7-.3-.9-.7-1.1h0Z"/>
    <path class="cls-4" d="M142.4,73.3v-.9h.8c-.6-.4-.9-.7-.9-1.2v-.5h.9v.6c0,.5.3.9,1,1.1h2.6v.9h-4.4Z"/>
    <path class="cls-4" d="M146.8,68.5c0,.7-.4,1.2-1.4,1.2h-2.4v.7h-.7v-.7h-1.1l-.3-.9h1.4v-1.3h.7v1.3h2.2c.5,0,.7-.2.7-.6s0-.4-.2-.7h.8c.2.2.3.6.3.9h0Z"/>
    <path class="cls-4" d="M146.7,63.8h-.7c.4.3.8.7.8,1.4s-.6,1.4-1.6,1.4h-2.8v-.9h2.6c.7,0,1-.3,1-.8s-.4-1-.8-1.1h-2.8v-.9h4.3v.9h0Z"/>
    <path class="cls-4" d="M142.4,61.7v-.9h.8c-.6-.4-.9-.7-.9-1.2v-.5h.9v.6c0,.5.3.9,1,1.1h2.6v.9h-4.4Z"/>
    <path class="cls-4" d="M146.8,56.6c0,1.5-.8,2.2-2.2,2.2s-2.3-.8-2.3-2.1,1-1.8,2-1.8h.4v3.1c.8,0,1.2-.4,1.2-1.4s-.2-1.1-.5-1.4l.8-.2c.3.4.5.9.5,1.7h0ZM144.2,57.8v-2.2c-.6,0-1.1.3-1.1,1s.4,1.1,1.1,1.1h0Z"/>
    <path class="cls-4" d="M141.6,50.5v1.8h-.8v-4.7h.8v1.8h5.2v1h-5.2Z"/>
    <path class="cls-4" d="M140.7,47v-1h1v1h-1ZM142.4,47v-.9h4.3v.9h-4.3Z"/>
    <path class="cls-4" d="M142.4,44.8v-.9h.6c-.4-.4-.7-.8-.7-1.4s.3-1.1.8-1.3c-.4-.3-.8-.8-.8-1.5s.6-1.4,1.6-1.4h2.8v.9h-2.6c-.7,0-1,.3-1,.8s.4.9.8,1.1h2.8v.9h-2.6c-.7,0-1,.3-1,.8s.4.9.8,1.1h2.8v.9h-4.3,0Z"/>
    <path class="cls-4" d="M146.8,35.2c0,1.5-.8,2.2-2.2,2.2s-2.3-.8-2.3-2.1,1-1.8,2-1.8h.4v3.1c.8,0,1.2-.4,1.2-1.4s-.2-1.1-.5-1.4l.8-.2c.3.4.5.9.5,1.7h0ZM144.2,36.5v-2.2c-.6,0-1.1.3-1.1,1s.4,1.1,1.1,1.1h0Z"/>
  </g>
  <g class="cls-9">
    <g class="cls-9">
      <g class="cls-9">
        <text class="cls-1" transform="translate(161.3 126.3) rotate(-90)"><tspan x="0" y="0">departuretime</tspan></text>
      </g>
    </g>
  </g>
  <g class="cls-9">
    <g class="cls-9">
      <g class="cls-9">
        <text class="cls-2" transform="translate(85.7 553.1) rotate(-90)"><tspan x="0" y="0">flightairflightnum OPERATED BY operatingcareer</tspan></text>
      </g>
    </g>
  </g>
  <g class="cls-9">
    <g class="cls-9">
      <g class="cls-9">
        <text class="cls-2" transform="translate(190.2 553.1) rotate(-90)"><tspan x="0" y="0">note</tspan></text>
      </g>
    </g>
  </g>
  <g class="cls-9">
    <g class="cls-9">
      <g class="cls-9">
        <text class="cls-8" transform="translate(213.7 553.1) rotate(-90)"><tspan x="0" y="0" xml:space="preserve">SEQ:012  PNR:AB1234  FFP:AL1234567890</tspan></text>
      </g>
    </g>
  </g>
  <g class="cls-9">
    <g class="cls-9">
      <g class="cls-9">
        <text class="cls-8" transform="translate(222.8 553.1) rotate(-90)"><tspan x="0" y="0" xml:space="preserve">ETKT 310-4030010000  MKT: AL</tspan></text>
      </g>
    </g>
  </g>
  <g class="cls-9">
    <g class="cls-9">
      <g class="cls-9">
        <text class="cls-5" transform="translate(222.9 260.2) rotate(-90)"><tspan x="0" y="0">SSSS</tspan></text>
      </g>
    </g>
  </g>
  <g class="cls-9">
    <g class="cls-9">
      <g class="cls-9">
        <text class="cls-6" transform="translate(161.1 549.3) rotate(-90)"><tspan x="0" y="0">class</tspan></text>
      </g>
    </g>
  </g>
  <g class="cls-9">
    <g class="cls-9">
      <g class="cls-9">
        <text class="cls-6" transform="translate(161.1 493.2) rotate(-90)"><tspan x="0" y="0">seat</tspan></text>
      </g>
    </g>
  </g>
  <g class="cls-9">
    <g class="cls-9">
      <g class="cls-9">
        <text class="cls-2" transform="translate(101.1 498.2) rotate(-90)"><tspan x="0" y="0">fromairport</tspan></text>
      </g>
    </g>
  </g>
  <g class="cls-9">
    <g class="cls-9">
      <g class="cls-9">
        <text class="cls-2" transform="translate(116.2 498.2) rotate(-90)"><tspan x="0" y="0">toairport</tspan></text>
      </g>
    </g>
  </g>
  <g>
    <path class="cls-4" d="M69.6,552.5l-1,.4c-1-.7-2.1-1.1-3.3-1.3v-.9c.8,0,1.4.2,2.1.5h5.6v.8h-3.9c.2,0,.4.3.6.4h-.1ZM66.8,545.5h3.4v2.2c.3,0,.8.2,1.1.4.5-1,.6-2,.7-3.1l.9.3c0,1.2-.4,2.3-.9,3.3.5.6.8,1.2.9,1.9l-.8.3c0-.5-.3-1.1-.6-1.5-.3.3-.5.6-.8.9l-.4-.7c.3-.3.5-.5.7-.8-.2-.2-.4-.2-.7-.3v1.8h-3.4v-2.1h-.5v2.3h-.8v-5.4h.8v2.4h.5v-2h0ZM67.5,549.6h.7v-1.3h-.7v1.3ZM68.8,549.6h.7v-1.2h-.7v1.3h0ZM69.5,547.6v-1.3h-.7v1.2h.7ZM68.1,547.5v-1.2h-.7v1.2h.7Z"/>
    <path class="cls-4" d="M67.6,543.1c.2.4.4.7.6,1.2l-.8.4c-.4-1.3-1.2-2.3-2.3-3l.2-.9c.2,0,.4.3.6.4v-3h.8c1.1.7,1.8,1.5,2.6,2.6v-3.2h3.4v5.2h-2.3c.2.6.4,1.2.6,1.8l-.9.3c-.2-1.2-.5-2.1-1.1-3.2-.5.5-.8.9-1.2,1.5h-.2ZM66.7,539v2.7c.2.2.4.4.5.6.4-.6.7-1.1,1.2-1.6-.6-.7-1-1.2-1.8-1.8h.1ZM70,541.8h1.8v-3.6h-1.8v3.6Z"/>
    <path class="cls-4" d="M65.7,533.8v-4h.9v3h1.9v-2.6h.9v2.6h2.8v1h-6.5,0Z"/>
    <path class="cls-4" d="M65.4,528.9v-1h6.8v1h-6.8Z"/>
    <path class="cls-4" d="M65.6,526.6v-1.1h1v1.1h-1ZM67.5,526.5v-1h4.6v1h-4.6Z"/>
    <path class="cls-4" d="M70.6,522.9c0,.2.2.4.4.4s.4,0,.4-.5v-1.4c0-1.1.6-1.5,1.3-1.5s1.6.8,1.6,2.5-.6,2.2-1.3,2.2-.9-.3-1.1-.9c-.2.3-.4.4-.7.4s-.6-.2-.8-.6c-.3.5-.7.8-1.4.8-1.1,0-1.6-.8-1.6-2s0-.8.2-1.2l-.2-1.4h.8v.8c.2,0,.5-.2.8-.2,1.1,0,1.6.8,1.6,2s0,.4,0,.6h0ZM73.5,522.3c0-1-.3-1.5-.8-1.5s-.5.2-.5.8v1.6c0,.3.2.5.6.5s.7-.4.7-1.4h0ZM69,521.3c-.6,0-.9.4-.9,1s.3,1,.9,1,.9-.4.9-1-.3-1-.9-1h0Z"/>
    <path class="cls-4" d="M65.4,518.9v-1h2.8c-.4-.3-.8-.8-.8-1.5s.6-1.5,1.7-1.5h3v1h-2.8c-.7,0-1.1.3-1.1.8s.3,1,.8,1.2h3v1h-6.8.2Z"/>
    <path class="cls-4" d="M72.3,511.9c0,.8-.4,1.4-1.5,1.4h-2.5v.8h-.7v-.8h-1.2l-.2-1h1.5v-1.4h.7v1.4h2.4c.5,0,.8-.2.8-.6s0-.5-.2-.7h.8c.2.2.2.6.2.9,0,0-.1,0-.1,0Z"/>
  </g>
  <g>
    <path class="cls-4" d="M94.8,545.9l.4-.6c.4.3.8.7,1.2,1.1.2-.4.4-.8.6-1.2l.8.3c-.2.4-.4.8-.6,1.2h.5v1.1h.9v-2.3h.8v2.3h1.3c.1,0,.2,0,.2-.2v-1.1c0-.3-.2-.4-1-.4v-.8c.5,0,1.1,0,1.4.2.3,0,.3.4.3.6v1.7c0,.4,0,.7-.6.7h-1.7v1.3c1.4.2,2.1,1.3,2.4,2.7l-.8.4c0-.6-.2-1-.6-1.5-.3-.4-.6-.7-1.1-.7v2.1h-.8v-2.2h-.9v.9h-.5c.2.4.4.7.6,1.1l-.8.4c-.2-.5-.4-.9-.7-1.4-.3.3-.6.6-.8,1l-.4-.5h-.7v-3.5c.3-.2.5-.3.7-.5l-.9-.9.4-.7c.4.3.7.7,1.1,1.1,0-.2.2-.3.3-.5l-1.1-1.1h.1ZM95,549.9v1.8c.2-.3.5-.7.8-1-.3-.4-.5-.6-.8-.9h0ZM95,549c.7.6,1.2,1.2,1.8,2v-4c-.5.8-1.1,1.4-1.8,2ZM97.6,549.7h.9v-1.2h-.9v1.2Z"/>
    <path class="cls-4" d="M96.8,542.9h2.6c0-.2-.2-.5-.2-.8h.8c.3.7.6,1.6.8,2.5h-.9c0-.2,0-.6-.2-.9h-2.8v.9h-.8v-.9h-1.9v-.8h1.9v-.8h.8v-.4h-2.1v-.8h1.7l-.2-1h-2.1v-.8h1.9l-.5-1.8h.7c.7,0,2.5,0,3,.3.3,0,.4.4.4.7v.6l-.8.2v-.5c0-.1-.1-.2-.3-.3h-1.9l.3,1.1h3.1v.8h-2.8l.3,1h3.3q.2,0,.2-.2v-2.5q0-.3-1.1-.4l.2-.8c.4,0,.8,0,1.2.2.3,0,.5.4.5.7v3c0,.2,0,.5-.2.6,0,0-.3.2-.5.2h-3.4v.5h-.7v.6h0l-.3-.3h0Z"/>
    <path class="cls-4" d="M94.6,533.8v-4h.9v3h1.9v-2.6h.9v2.6h2.8v1h-6.5,0Z"/>
    <path class="cls-4" d="M94.6,528.8v-2.2c0-1.6.7-2.4,2-2.4s1.7.7,1.9,1.3l2.5-1.9v1.2l-2.4,1.7v1.2h2.4v1h-6.4ZM95.5,527.7h2.3v-1.2c0-.5-.2-1.3-1.2-1.3s-1.2.6-1.2,1.5v1.1h0Z"/>
    <path class="cls-4" d="M97.8,523.1c-2.1,0-3.3-1.2-3.3-3s1.2-3,3.3-3,3.3,1.2,3.3,3-1.2,3-3.3,3ZM97.8,518.2c-1.5,0-2.4.7-2.4,1.9s.9,1.9,2.4,1.9,2.4-.7,2.4-1.9-.9-1.9-2.4-1.9Z"/>
    <path class="cls-4" d="M94.6,515.9v-1.4l4.9-2-4.9-2v-1.5h6.4v1h-5.2l5.2,2.1v.7l-5.2,2.1h5.2v.9h-6.4Z"/>
  </g>
  <g>
    <path class="cls-4" d="M111.6,545.2v5.5c1.8,0,2.9.2,4.2,1.5l-.6.6c-1.1-1.2-2.1-1.3-3.6-1.3v1.2h-.7v-3.4h-.4v2.6h-.6v-2.6h-.3v3h-.7v-1.6c-.2,0-.4.2-.6.3v-.9s.4-.3.6-.3v-1.9c-.2,0-.5-.2-.7-.3v-.9c.4,0,.5.2.7.3v-1.6h.7v3.1h.3v-2.6h.6v2.6h.4v-3.4h.7ZM115.7,546v4.6h-3.7v-4.6h3.7ZM112.6,549.8h.4v-3h-.4v3ZM113.6,549.8h.5v-3h-.5v3ZM114.6,549.8h.5v-3h-.5v3Z"/>
    <path class="cls-4" d="M111,542.9h2.6c0-.2-.2-.5-.2-.8h.8c.3.7.6,1.6.8,2.5h-.9c0-.2,0-.6-.2-.9h-2.8v.9h-.8v-.9h-1.9v-.8h1.9v-.8h.8v-.4h-2.1v-.8h1.7l-.2-1h-2.1v-.8h1.9l-.5-1.8h.7c.7,0,2.5,0,3,.3.3,0,.4.4.4.7v.6l-.8.2v-.5c0-.1,0-.2-.3-.3h-1.9l.3,1.1h3.1v.8h-2.8l.3,1h3.3q.2,0,.2-.2v-2.5q0-.3-1.1-.4l.2-.8c.4,0,.8,0,1.2.2.3,0,.5.4.5.7v3c0,.2,0,.5-.2.6,0,0-.3.2-.5.2h-3.4v.5h-.7v.6h0l-.3-.3h0Z"/>
    <path class="cls-4" d="M109.6,532.5v2h-.9v-5h.9v2h5.6v1h-5.6Z"/>
    <path class="cls-4" d="M112,529.1c-2.1,0-3.3-1.2-3.3-3s1.2-3,3.3-3,3.3,1.2,3.3,3-1.2,3-3.3,3ZM112,524.2c-1.5,0-2.4.7-2.4,1.9s.9,1.9,2.4,1.9,2.4-.7,2.4-1.9-.9-1.9-2.4-1.9Z"/>
  </g>
  <g>
    <path class="cls-4" d="M135.9,547.1l-.8.6c-.8-2.3-2.5-3.8-4.9-4.3v2.7c.9.6,1.6,1.1,2.2,1.9l-.6.7c-.7-.9-1.5-1.6-2.5-2.1v-4.4c3.1.4,5.4,1.8,6.5,4.8h.1Z"/>
    <path class="cls-4" d="M131,534.2c2.6.3,4.2,2,4.8,4.5l-.8.5c-.4-1.8-1.3-3.3-3.2-3.8v5.3h-.9v-6.4h0ZM129.3,534.9h.9v4.9h-.9v-4.9Z"/>
    <path class="cls-4" d="M135,525.9l.6.7c-.9.7-1.7,1.4-2.4,2.2,1.1.9,1.9,2,2.5,3.3l-.8.5c-1-2.2-2.4-3.7-4.6-4.6v4h-.9v-5.3c1.1.3,2.1.8,3.1,1.4.7-.9,1.6-1.7,2.5-2.4h0s0,.2,0,.2Z"/>
    <path class="cls-4" d="M135.6,519.7c0,1.9-1.2,3.1-3.3,3.1s-3.3-1.2-3.3-3.1.3-1.5.6-1.9l1,.2c-.4.4-.7,1-.7,1.7,0,1.3.9,2.1,2.4,2.1s2.4-.9,2.4-2.1-.4-1.4-.7-1.8l.9-.2c.4.4.7,1.1.7,2.1h0Z"/>
    <path class="cls-4" d="M128.8,516.6v-.9h6.6v.9h-6.6Z"/>
    <path class="cls-4" d="M135.5,511.6h-.6c.4.3.7.8.7,1.5s-.5,1.5-1.4,1.5-1.5-.8-1.5-2.3v-.6h-.2c-.6,0-.9.3-.9,1s.2,1.1.5,1.5l-.8.2c-.3-.4-.5-1-.5-1.7,0-1.3.6-1.8,1.6-1.8h3.1v.9h0s0-.2,0-.2ZM134.1,511.7h-.8v.5c0,1,.2,1.5.8,1.5s.7-.3.7-.8-.3-1-.7-1.2h0Z"/>
    <path class="cls-4" d="M134.3,509.5c.3-.5.5-1,.5-1.6s-.2-.8-.5-.8-.5.3-.7,1c-.2.8-.5,1.5-1.4,1.5s-1.4-.6-1.4-1.8,0-1.1.4-1.5l.8.2c-.2.4-.4.8-.4,1.3s.2.8.6.8.5-.4.7-1c.2-.8.5-1.4,1.4-1.4s1.4.7,1.4,1.8-.2,1.2-.4,1.7l-.9-.2h0Z"/>
    <path class="cls-4" d="M134.3,505.3c.3-.5.5-1,.5-1.6s-.2-.8-.5-.8-.5.3-.7,1c-.2.8-.5,1.5-1.4,1.5s-1.4-.6-1.4-1.8,0-1.1.4-1.5l.8.2c-.2.4-.4.8-.4,1.3s.2.8.6.8.5-.4.7-1c.2-.8.5-1.4,1.4-1.4s1.4.7,1.4,1.8-.2,1.2-.4,1.7l-.9-.2h0Z"/>
  </g>
  <g>
    <path class="cls-4" d="M128.6,488.7h.7v-3.2h.8v6.1h2.9c1,0,2.1.3,3,.7l-.7.7c-.8-.4-1.5-.6-2.4-.6h-3.6v-2.9h-.7v-.8h0ZM130.4,488.1h3.1v-2.4h.7v2.4h.9v-2.7h.8v6.1h-.8v-2.7h-.9v2.3h-.7v-2.3h-3.1v-.8h0ZM133.2,490.9l-.5.6c-.7-.6-1.5-.9-2.4-1.1v-.8c.4,0,.7,0,1.1.2.5-.2.8-.5,1.1-.8l.6.5c-.3.3-.6.5-.9.7.4.2.6.4.9.6h.1ZM133.2,487.4l-.5.6c-.7-.5-1.5-.8-2.4-.9v-.8c.4,0,.8,0,1.1.3.5-.3.8-.7,1.1-1.2l.7.5c-.3.4-.6.7-1,1,.4.2.6.3,1,.6h0Z"/>
    <path class="cls-4" d="M133.8,480.3h2.3v.8h-2.3v1.3h1.9v.8h-2.6v-2.1h-.5v1.5h-1.3v1h1.4c1.2,0,2.4.2,3.4.8l-.6.6c-.8-.6-1.9-.6-2.8-.6h-3.4v-2.9h-.5v-.8h.5v-3.2h.7v1.3h.7v-1.4h.7v1.4h1.3v1.5h.5v-2.4h2.1c.3,0,.5.2.5.5v1.1l-.8.2v-.8c0,0,0-.2-.2-.2h-.9v1.6h0ZM129.9,483.6h.7v-1h-.7v1ZM129.9,481.8h.7v-2.3h-.7v2.3ZM131.2,481.8h.7v-2.3h-.7v2.3Z"/>
    <path class="cls-4" d="M134,474.4c.4-.5.7-1.1.7-2s-.4-1.2-.9-1.2-.9.7-1.1,1.4c-.3.9-.6,1.9-1.9,1.9s-1.9-.7-1.9-2.2.2-1.4.5-1.8l.9.2c-.3.4-.6,1-.6,1.6s.4,1.2.9,1.2.8-.6,1.1-1.4c.3-.9.6-1.9,1.9-1.9s1.9.7,1.9,2.3-.2,1.6-.6,2.2l-.9-.2h0Z"/>
    <path class="cls-4" d="M135.6,467.1c0,1.5-.9,2.3-2.3,2.3s-2.4-.8-2.4-2.2,1.1-2,2.2-2h.5v3.2c.9,0,1.4-.5,1.4-1.5s-.2-1.1-.5-1.5l.8-.2c.3.4.5,1,.5,1.8h-.2ZM132.7,468.5v-2.3c-.6,0-1.2.3-1.2,1.1s.4,1.2,1.2,1.2h0Z"/>
    <path class="cls-4" d="M135.5,461.5h-.6c.4.3.7.8.7,1.5s-.5,1.5-1.4,1.5-1.5-.8-1.5-2.3v-.6h-.2c-.6,0-.9.3-.9,1s.2,1.1.5,1.5l-.8.2c-.3-.4-.5-1-.5-1.7,0-1.3.6-1.8,1.6-1.8h3.1v.9h0s0-.2,0-.2ZM134.1,461.6h-.8v.5c0,1,.2,1.5.8,1.5s.7-.3.7-.8-.3-1-.7-1.2h0Z"/>
    <path class="cls-4" d="M135.6,457.7c0,.8-.4,1.3-1.4,1.3h-2.5v.8h-.7v-.8h-1.2l-.2-.9h1.5v-1.4h.7v1.4h2.4c.5,0,.8-.2.8-.6s0-.5-.2-.7h.8c.2.2.2.6.2.9h-.2Z"/>
  </g>
  <g class="cls-9">
    <g class="cls-9">
      <g class="cls-9">
        <text class="cls-6" transform="translate(161.1 425) rotate(-90)"><tspan x="0" y="0">gate</tspan></text>
      </g>
    </g>
  </g>
  <g class="cls-9">
    <g class="cls-9">
      <g class="cls-9">
        <text class="cls-6" transform="translate(161.1 328.1) rotate(-90)"><tspan x="0" y="0">boardingtime</tspan></text>
      </g>
    </g>
  </g>
  <g>
    <path class="cls-4" d="M131.6,422.6c-.3-.8-.7-1.7-1.4-2.2v-.8c.7-.6,1.2-1.5,1.4-2.4l.8.3c0,.4-.2.6-.4.9h.6v3.1h-.6c0,.3.2.5.4.8h.5c0,.3.2.5.3.8h2.4c.5,0,.7.2.7.7v.9h-.9v-.6c0-.1,0-.2-.2-.2h-1.6c0,.3.2.5.2.8h-.8c0-.2,0-.5-.2-.8h-1.8v.9h-.8v-.9h-1.5v-.8h1.5v-.7h.8v.7h1.5c0-.2-.2-.5-.2-.7l-.5.2h-.2ZM128.6,420.8h.5v-1.6h-.5v-.8h.5v-1.1h.7v1.1h.5v.8h-.5v1.6h.5v.8h-.5v1h-.7v-1h-.5v-.8ZM136,417.8v4.3h-2.8v-4.3h2.8ZM131.9,418.5c-.3.6-.7,1-1.1,1.5.5.4.9.9,1.1,1.5v-2.9h0ZM133.9,421.4h1.4v-2.8h-1.4v2.8Z"/>
    <path class="cls-4" d="M129.8,415.3v.9h-.7c0-1.9,0-3.9-.4-5.9l.8-.3c.2.9.3,1.8.3,2.8h.6v-3.1h.7v.9h.8v-1.2h.7v1.2h.7v-.9h.6v2.3c.7-.8,1.1-1.7,1.4-2.7l.8.4c-.4,1.2-1.1,2.2-2,3.1h2.2v.8h-2.2c.9.8,1.6,1.9,1.9,3l-.8.5c-.3-1-.7-2-1.4-2.8v2.4h-.6v-.9h-.7v1.1h-.7v-1.1h-.8v.9h-.7v-3.1h-.5v1.8h0ZM130.9,414.9h.8v-1.4h-.8v1.4ZM132.3,414.9h.7v-1.4h-.7v1.4ZM130.9,412.6h.8v-1.4h-.8v1.4ZM132.3,412.6h.7v-1.4h-.7v1.4Z"/>
    <path class="cls-4" d="M135.9,401.8v6.6h-6.7v-6.6h6.7ZM130,407.4h5v-4.8h-5v4.8Z"/>
    <path class="cls-4" d="M135.6,395.3c0,2-1.2,3.1-3.3,3.1s-3.3-1.2-3.3-3.2.3-1.7.6-2.1l1,.2c-.4.5-.7,1.1-.7,1.9,0,1.5.9,2.2,2.4,2.2s2.4-.8,2.4-2.2,0-.9-.2-1.3h-1.6v1.6h-.8v-2.5h2.9c.4.4.7,1.3.7,2.3h0Z"/>
    <path class="cls-4" d="M135.5,388.9h-.6c.4.3.7.8.7,1.5s-.5,1.5-1.4,1.5-1.5-.8-1.5-2.3v-.6h-.2c-.6,0-.9.3-.9,1s.2,1.1.5,1.5l-.8.2c-.3-.4-.5-1-.5-1.7,0-1.3.6-1.8,1.6-1.8h3.1v.9h0v-.2h0ZM134.1,389h-.8v.5c0,1,.2,1.5.8,1.5s.7-.3.7-.8-.3-1-.7-1.2h0Z"/>
    <path class="cls-4" d="M135.6,385.2c0,.8-.4,1.3-1.4,1.3h-2.5v.8h-.7v-.8h-1.2l-.2-.9h1.5v-1.4h.7v1.4h2.4c.5,0,.8-.2.8-.6s0-.5-.2-.7h.8c.2.2.2.6.2.9h-.2Z"/>
    <path class="cls-4" d="M135.6,381.2c0,1.5-.9,2.3-2.3,2.3s-2.4-.8-2.4-2.2,1.1-2,2.2-2h.5v3.2c.9,0,1.4-.5,1.4-1.5s-.2-1.1-.5-1.5l.8-.2c.3.4.5,1,.5,1.8h-.2ZM132.7,382.6v-2.3c-.6,0-1.2.3-1.2,1.1s.4,1.2,1.2,1.2h0Z"/>
  </g>
  <g>
    <path class="cls-4" d="M131.6,325.9c-.3-.8-.7-1.7-1.4-2.2v-.8c.7-.6,1.2-1.5,1.4-2.4l.8.3c0,.4-.2.6-.4,1h.6v3.1h-.6c0,.3.2.5.4.8h.5c0,.3.2.5.3.8h2.4c.5,0,.7.2.7.7v.9h-.9v-.6c0-.1,0-.2-.2-.2h-1.6c0,.3.2.5.2.8h-.8c0-.2,0-.5-.2-.8h-1.8v.9h-.8v-.9h-1.5v-.8h1.5v-.7h.8v.7h1.5c0-.2-.2-.5-.2-.7l-.5.2h-.2ZM128.6,324.1h.5v-1.6h-.5v-.8h.5v-1.1h.7v1.1h.5v.8h-.5v1.6h.5v.8h-.5v1h-.7v-1h-.5v-.8ZM136,321.1v4.3h-2.8v-4.3h2.8ZM131.9,321.8c-.3.5-.7,1-1.1,1.5.5.4.9.9,1.1,1.5v-2.9h0ZM133.9,324.6h1.4v-2.8h-1.4v2.8Z"/>
    <path class="cls-4" d="M129.8,318.6v.9h-.7c0-1.8,0-3.9-.4-5.9l.8-.3c.2.9.3,1.8.3,2.8h.6v-3.1h.7v.9h.8v-1.2h.7v1.2h.7v-.9h.6v2.3c.7-.8,1.1-1.7,1.4-2.7l.8.4c-.4,1.2-1.1,2.2-2,3.1h2.2v.8h-2.2c.9.8,1.6,1.9,1.9,3l-.8.5c-.3-1-.7-2-1.4-2.8v2.4h-.6v-.9h-.7v1.1h-.7v-1.1h-.8v.9h-.7v-3.1h-.5v1.8h0ZM130.9,318.1h.8v-1.4h-.8v1.4ZM132.3,318.1h.7v-1.4h-.7v1.4ZM130.9,316h.8v-1.4h-.8v1.4ZM132.3,316h.7v-1.4h-.7v1.4Z"/>
    <path class="cls-4" d="M128.9,309.4h6.7v2.5h-6.7v-2.5ZM129.7,311.1h2.1v-1h-2.1v1ZM132.6,311.1h2.2v-1h-2.2v1ZM135.3,305.4c.6,0,.8.2.8.9v1.2l-.8.2v-1.1c0-.1,0-.2-.2-.2h-1.7v2.9h-.8v-2.9h-.8v2.9h-.8v-1.9h-.9v1.6h-.8v-1.6h-.7v-.8h.7v-1.6h.8v1.6h.9v-1.9h.8v.8h.8v-.8h.8v.8h2-.1ZM134.7,307.3l.5.7c-.6.4-.8.5-1.4,1l-.5-.6c.4-.5.7-.7,1.3-1.1h0Z"/>
    <path class="cls-4" d="M135.2,299.4l.7.5c-.4.6-.8,1-1.3,1.5.7.7,1.1,1.5,1.5,2.4l-.7.4c-.7-1.9-1.8-3.1-3.6-4l.4-.7c.7.3,1.3.7,1.9,1.2.5-.5.8-.8,1.2-1.4h0ZM131.5,304l-.6-.5c0-.1.2-.3.3-.4-.3-.3-.6-.5-.9-.7v1.6h-.8v-1.9h-.9v-.8h.9v-1.9h.8v2c.5.3,1,.7,1.4,1.1.2-.1.3-.3.5-.4-.5-.5-1-.9-1.7-1.2l.4-.7c1.6.9,2.7,1.9,3.4,3.5l-.7.4c-.2-.6-.5-1-.9-1.5-.4.4-.9.8-1.2,1.2h0v.2h0ZM129.1,298.4h5.1v.8h-5.1v-.8ZM128.6,296.9h6.6c.6,0,.8.2.8.9v1.1h-.8c0,.1,0-.9,0-.9,0,0,0-.1-.2-.1h-6.5v-1h0Z"/>
    <path class="cls-4" d="M129.1,293.4v-2.3c0-1.4.6-2.1,1.6-2.1s1.2.3,1.4,1c.2-.8.7-1.3,1.6-1.3,1.3,0,1.8,1.1,1.8,2.3v2.4h-6.4ZM130,292.4h1.9v-1.2c0-.7-.2-1.1-.9-1.1s-.9.4-.9,1.1v1.2h0ZM134.6,292.4v-1.4c0-.7-.2-1.3-1-1.3s-1,.5-1,1.2v1.4h2Z"/>
    <path class="cls-4" d="M133.2,287.9c-1.5,0-2.4-1-2.4-2.2s.9-2.2,2.4-2.2,2.4,1,2.4,2.2-.9,2.2-2.4,2.2ZM133.2,284.5c-1,0-1.6.5-1.6,1.2s.6,1.2,1.6,1.2,1.6-.5,1.6-1.2-.6-1.2-1.6-1.2Z"/>
    <path class="cls-4" d="M135.5,279.7h-.6c.4.3.7.8.7,1.5s-.5,1.5-1.4,1.5-1.5-.8-1.5-2.3v-.6h-.2c-.6,0-.9.3-.9,1s.2,1.1.5,1.5l-.8.2c-.3-.4-.5-1-.5-1.7,0-1.3.6-1.8,1.6-1.8h3.1v.9h0s0-.2,0-.2ZM134.1,279.8h-.8v.5c0,1,.2,1.5.8,1.5s.7-.3.7-.8-.3-1-.7-1.2h0Z"/>
    <path class="cls-4" d="M130.9,277.5v-.9h.8c-.7-.3-.9-.8-.9-1.3s0-.4,0-.5h.9c0,.2,0,.5,0,.6,0,.5.3,1,1,1.2h2.8v1h-4.6Z"/>
    <path class="cls-4" d="M135.5,270.9h-.6c.4.4.7.8.7,1.5,0,1.2-.9,2-2.4,2s-2.4-.8-2.4-2.2.2-1,.5-1.3h-2.5v-1h6.6v.9h.1ZM134.7,272.1c0-.6-.3-1-.7-1.2h-1.9c-.3.2-.5.6-.5,1.1,0,.8.6,1.3,1.6,1.3s1.5-.5,1.5-1.3h0Z"/>
    <path class="cls-4" d="M129,268.7v-1.1h1v1.1h-1ZM130.9,268.6v-1h4.6v1h-4.6Z"/>
    <path class="cls-4" d="M130.9,266.3v-.9h.7c-.4-.3-.8-.8-.8-1.6s.6-1.5,1.7-1.5h3v1h-2.8c-.7,0-1.1.3-1.1.8s.3,1,.8,1.2h3v1h-4.6.1Z"/>
    <path class="cls-4" d="M133.9,259.9c0,.2.2.4.4.4s.4-.1.4-.5v-1.4c0-1.1.6-1.5,1.3-1.5s1.6.8,1.6,2.5-.6,2.2-1.3,2.2-.9-.3-1.1-.9c0,.3-.4.4-.7.4s-.6-.1-.8-.6c-.3.5-.7.8-1.3.8-1.1,0-1.6-.8-1.6-1.9s0-.8.2-1.1l-.2-1.4h.8v.8c.2-.1.5-.2.8-.2,1,0,1.6.8,1.6,2s0,.4,0,.6h0v-.2h-.1ZM136.8,259.3c0-1-.3-1.5-.7-1.5s-.5.2-.5.8v1.5c0,.3.2.5.5.5s.7-.4.7-1.4h0ZM132.4,258.3c-.6,0-.9.4-.9,1s.3,1,.9,1,.9-.4.9-1-.3-1-.9-1h0Z"/>
    <path class="cls-4" d="M130,252.3v2h-.9v-5h.9v2h5.5v1h-5.5Z"/>
    <path class="cls-4" d="M129,248.6v-1.1h1v1.1h-1ZM130.9,248.6v-1h4.6v1h-4.6Z"/>
    <path class="cls-4" d="M130.9,246.3v-.9h.7c-.4-.3-.8-.8-.8-1.5s.3-1.1.9-1.4c-.5-.3-.9-.8-.9-1.6s.6-1.5,1.7-1.5h3v1h-2.8c-.7,0-1.1.3-1.1.8s.4,1,.8,1.2h3v1h-2.8c-.7,0-1.1.3-1.1.8s.4,1,.8,1.2h3v1h-4.6.2Z"/>
    <path class="cls-4" d="M135.6,236.1c0,1.5-.9,2.3-2.3,2.3s-2.4-.8-2.4-2.2,1.1-2,2.2-2h.5v3.2c.9,0,1.4-.5,1.4-1.5s-.2-1.1-.5-1.5l.8-.2c.3.4.5,1,.5,1.8h-.2ZM132.7,237.5v-2.3c-.6,0-1.2.3-1.2,1.1s.4,1.2,1.2,1.2h0Z"/>
  </g>
  <line class="cls-3" x1="139.1" y1="220.2" x2="139.1" y2="553"/>
  <line class="cls-3" x1="125.6" y1="220.2" x2="125.6" y2="553"/>
  <line class="cls-3" x1="168.6" y1="220.2" x2="168.6" y2="553"/>
  <line class="cls-3" x1="168.6" y1="552.5" x2="125.6" y2="552.5"/>
  <line class="cls-3" x1="168.6" y1="431" x2="125.6" y2="431"/>
  <line class="cls-3" x1="168.6" y1="220.7" x2="125.6" y2="220.7"/>
  <line class="cls-3" x1="168.6" y1="332.9" x2="125.6" y2="332.9"/>
  <line class="cls-3" x1="168.6" y1="497.8" x2="125.6" y2="497.8"/>
  <path class="cls-10" d="M223.1,131.3h-82.8c-3.1,0-5.6-2.5-5.6-5.7V15.2c0-3.1,2.5-5.7,5.6-5.7h82.8c3.1,0,5.6,2.5,5.6,5.7v110.4c0,3.1-2.5,5.7-5.6,5.7Z"/>
  <g>
    <g>
      <g>
        <path class="cls-4" d="M170.1,123.7c-.2-.8-.7-1.6-1.3-2.2v-.9c.7-.5,1.1-1.5,1.3-2.3l.9.3c-.1.3-.2.5-.3.9h.7v3.1h-.5c.1.2.2.4.3.8h-.2.7c0,.2.2.4.2.7h2.3c.4,0,.7.2.7.7v.9h-1c0,.1,0-.4,0-.4,0-.1,0-.2-.2-.2h-1.3c0,.2.1.4.2.8h-1c0-.2-.1-.4-.2-.8h-1.5v.8h-.9v-.8h-1.3v-1h1.3v-.7h.9v.7h1.3c0-.2-.1-.4-.2-.5l-.4.2h-.2ZM167.3,121.7h.4v-1.4h-.4v-.9h.4v-1.1h.9v1.1h.4v.9h-.4v1.4h.4v.9h-.4v.9h-.9v-.9h-.4v-.9ZM174.5,118.9v4.3h-2.7v-4.3h2.7ZM172.5,122.3h1.2v-2.4h-1.2v2.4ZM170.4,119.9c-.3.4-.5.8-1,1.2.4.3.7.7,1,1.2v-2.3h0Z"/>
        <path class="cls-4" d="M168.5,116.8v.4h-.8v-.5c0-1.7,0-3.6-.4-5.1l.9-.4c.1.9.2,1.7.2,2.6h.4v-2.9h.8v.8h.7v-1.1h.8v1.1h.5v-.8h.8v2.2c.5-.8,1-1.6,1.2-2.6l1,.4c-.3,1.1-1,2.1-1.7,2.8h2v.9h-2c.8.8,1.4,1.9,1.7,2.8l-.9.5c-.2-1-.7-1.9-1.2-2.6v2.2h-.8v-.8h-.5v1.1h-.8v-1.1h-.7v.8h-.8v-2.9h-.4v2.1h0v.2h0ZM169.5,116h.7v-1.2h-.7v1.2ZM171,116h.7v-1.2h-.7v1.2ZM169.5,113.8h.7v-1.2h-.7v1.2ZM171,113.8h.7v-1.2h-.7v1.2Z"/>
        <path class="cls-4" d="M167.6,107.4h6.5v2.5h-6.5v-2.5ZM168.5,109.1h1.9v-.8h-1.9v.8ZM171.2,109.1h2.1v-.8h-2.1v.8ZM173.8,103.5c.2,0,.4,0,.5.2.1.1.2.3.2.5v1.3l-1,.2v-1.1c0-.1,0-.2-.2-.2h-1.4v2.7h-.9v-2.7h-.7v2.7h-.9v-1.7h-.8v1.5h-.9v-1.5h-.7v-1h.7v-1.5h.9v1.5h.8v-1.7h.9v.8h.7v-.7h.9v.7h1.9ZM173.4,105.4l.5.9c-.7.3-.8.4-1.3,1l-.4-.8c.4-.4.7-.7,1.3-1h-.1Z"/>
        <path class="cls-4" d="M170.2,102.3l-.8-.5c0-.1.1-.2.2-.3-.2-.2-.5-.4-.8-.5v1.4h-.9v-1.9h-.8v-1h.8v-1.7h.9v2.1c.4.2,1,.7,1.3,1,.1-.1.2-.2.4-.3-.4-.4-1-.8-1.5-1.1l.4-.8c1.5.9,2.6,1.9,3.4,3.4l-.8.4c-.2-.4-.4-.9-.8-1.3-.4.3-.8.8-1.1,1.2h-.1ZM173.7,97.7l.9.5c-.3.5-.8,1-1.2,1.3.7.8,1,1.4,1.4,2.3l-.9.5c-.7-1.7-1.7-3.1-3.4-3.9l.4-.8c.7.3,1.2.7,1.7,1.2.4-.4.8-.8,1.1-1.3h-.1ZM167.7,96.8h5v1h-5v-1ZM167.3,95.3h6.4c.7,0,.9.2.9.9v1.1h-1c0,.1,0-.9,0-.9,0,0,0-.1-.2-.1h-6.1v-1h0Z"/>
      </g>
      <g>
        <path class="cls-4" d="M186.4,125.3h-1.4l-.9-1c-1.5-1.6-2.8-2.6-3.8-2.6s-1.1.6-1.1,1.4.2,1.2.7,2h-1.4c-.3-.7-.6-1.5-.6-2.4,0-1.7.9-2.6,2.5-2.6s2.4.7,4.8,3.2v-3.4h1.3v5.6h0Z"/>
        <path class="cls-4" d="M182.2,118.8c-2.6,0-4.4-.9-4.4-2.9s1.5-2.9,4.4-2.9,4.3,1,4.3,2.9-1.4,2.9-4.3,2.9ZM182.2,114.7c-1.3,0-3.1,0-3.1,1.3s1.8,1.2,3.1,1.2,3.1,0,3.1-1.2-1.8-1.3-3.1-1.3h0Z"/>
        <path class="cls-4" d="M182.1,110.2l-1.1.9c-.9-1.4-2-2.3-3.6-2.9l.3-1.3c1.2.4,2.3,1,3.2,2v-5.6c-.9.9-2.1,1.5-3.2,2.1l-.3-1.3c1.5-.6,2.6-1.5,3.5-2.8l1,.9c-.3.3-.4.6-.8.9h2.3c.6,0,2.1.2,2.6.4.6.3.8.7.8,1.3v1.6l-1.3.3v-1.5c0-.3-.2-.5-.5-.6-.8-.3-2.2-.3-3.1-.3v2.1c2.5.3,3.8,1.5,4.8,3.7l-1.2.8c-.7-1.8-1.6-3-3.7-3.2v1.7h-.8c.3.3.4.5.7.9h.3Z"/>
        <path class="cls-4" d="M178.5,98.5c-.3.2-.6.3-.9.5l-.3-1.4c.3-.2.9-.4,1.2-.5v-2.1c-.3-.2-.8-.3-1.1-.4l.2-1.5c.3,0,.7.3,1,.4v-2.2h1.1v9.5h-1.1v-2.4h0ZM180.4,96.3h5.6c.3,0,.4,0,.6,0,.3.2.3.4.3.7v1.3l-1.2.2v-.9c0-.3,0-.3-.2-.3h-.8v1.6h2.2v1.2h-6.5v-4h0s-.2.2-.2.2ZM181.5,99.1h.7v-1.6h-.7v1.6ZM183.1,99.1h.7v-1.6h-.7v1.6ZM180.5,94.2h4.4v1.2h-4.4v-1.2ZM180.2,91.9h5.8c.6,0,.9.3.9.9v1.9l-1.2.3v-1.5c0,0,0-.2-.2-.2h-5.3v-1.3h0Z"/>
        <path class="cls-4" d="M182.3,88.3v1.2h-1.3v-3h-.8v3.3h-1.3v-3.3h-1.2v-1.3h1.2c0-1,0-2.1,0-3.2h1.3v3.1h.7c0-.9,0-1.8,0-2.7h1.3c0,.9,0,1.8,0,2.7h1.1c.3-1.1.8-2.1,1.3-3l1.3.6c-.5.8-.9,1.5-1.3,2.4.4,0,.8,0,1.1.3.5.4.7,1.3.7,1.9,0,1-.4,2.2-1.6,2.2s-1.2-.4-1.5-1c-.2-.5-.3-1-.3-1.5v-.6h-.9v1.8h0s.2.2.2.2ZM184.3,87.3c0,.3,0,1.2.6,1.2s.5-.6.5-.9c0-.9-.4-.9-1-.9v.7h0Z"/>
        <path class="cls-4" d="M178.8,78.6l-.5-6.7h1.4c0,.9.2,1.8.7,2.7s1.4,1.8,2.6,1.8,2.1-1.8,2.2-3.1l1.4.6c-.3,1.9-1.2,3.8-3.4,3.8s-2.1-.4-2.6-1.3c-.3-.3-.4-.7-.7-1l.5,4.7h-1.4v-1.6h0ZM180.9,73.7c.6-.5,1.2-.9,1.9-1.2l.5.8c-.8.3-1.3.6-1.9,1.1l-.4-.8h0ZM180.1,72.3c.6-.5,1.2-.9,1.9-1.2l.5.9c-.8.3-1.2.6-1.9,1.1l-.4-.8h0Z"/>
        <path class="cls-4" d="M178.3,67.9c1.5.3,3.1.6,4.6.6s2.1,0,3.2-.3l.2,1.4c-1.1.3-2.2.3-3.3.3-1.6,0-3.2-.2-4.8-.5l.2-1.4h0ZM183.8,66c.3,0,.5-.2.6-.4,0-.3.2-1,.2-1.4,0-.9,0-1.5-.3-2.4h1.4c0,.8.2,1.5.2,2.3,0,1.3,0,3.1-1.8,3.1s-.9-.2-1.4-.4l.3-1.1c.3.2.6.3.9.3h0ZM180.1,64c0,.9,0,1.9.2,2.8h-1.4c0-.9-.2-1.9-.2-2.9v-1.7h1.3v1.8h0Z"/>
        <path class="cls-4" d="M181.1,57.8c-.3-1-.9-2.1-1.6-2.7v-1.2c.9-.8,1.4-1.9,1.6-3l1.1.4c-.2.4-.3.7-.4,1.1h.8v3.9h-.8c.2.3.3.6.4.9h-.3.9c0,.3.3.6.3.9h2.9c.6,0,.9.3.9.9v1.1l-1.3.2v-.7c0-.2,0-.3-.3-.3h-1.7c0,.3.2.6.3.9h-1.3c0-.3-.2-.6-.3-.9h-2v1h-1.2v-1h-1.7v-1.2h1.7v-.8h1.2v.8h1.6c0-.3-.2-.5-.3-.8l-.6.3h0l-.2.2h0ZM177.4,55.5h.6v-1.9h-.6v-1.1h.6v-1.4h1v1.4h.6v1.1h-.6v1.9h.6v1.1h-.6v1.2h-1v-1.2h-.6v-1.1ZM186.7,51.8v5.6h-3.5v-5.6h3.5ZM184.2,56.1h1.5v-3.2h-1.5v3.2ZM181.5,53c-.3.6-.7,1-1.2,1.5.5.4.9.9,1.2,1.5v-3h0Z"/>
        <path class="cls-4" d="M179,49v.6l-1,.2v-.9c0-2.2,0-4.6-.5-6.7l1.1-.5c.2,1.1.3,2.3.3,3.4h.6v-3.8h.9v1h.8v-1.4h1v1.4h.8v-1h.9v2.8c.8-.9,1.2-2.1,1.5-3.3l1.2.6c-.5,1.4-1.2,2.6-2.2,3.7h2.6v1.2h-2.5c.9.9,1.8,2.4,2.2,3.7l-1.2.7c-.3-1.2-.8-2.4-1.6-3.4v2.8h-.9v-1h-.8v1.4h-1v-1.4h-.8v1h-.9v-3.8h-.6v2.6h0ZM180.4,47.9h.8v-1.5h-.8v1.5ZM182.2,47.9h.8v-1.5h-.8v1.5ZM180.4,45.2h.8v-1.5h-.8v1.5ZM182.2,45.2h.8v-1.5h-.8v1.5Z"/>
        <path class="cls-4" d="M186.6,31.5v8.4h-8.5v-8.4h8.5ZM179.4,38.5h5.9v-5.7h-5.9v5.7Z"/>
        <path class="cls-4" d="M180,28c-.6-.4-1-.8-1-1.4s.3-.9.9-1.3c1.8-1.2,3.5-2.7,4.9-4.4l1.3.8c-1.5,1.7-3.2,3.2-5.1,4.4-.2.2-.3.3-.3.4s.2.3.3.3c1,.8,2.1,1.5,3.1,2.2l-1.1,1c-.9-.8-1.9-1.5-2.8-2.2h0Z"/>
      </g>
    </g>
    <g>
      <g>
        <path class="cls-4" d="M193.4,125.5h-4.2v-1.1c0-1.1.4-1.7,1.3-1.7s1.3.5,1.3,1.6v.3h1.6v.9h0ZM191.2,124.5c0-.5-.2-.9-.6-.9s-.6.3-.6.8v.3h1.3v-.3h0Z"/>
        <path class="cls-4" d="M193.4,122.2h-4.5v-.8h4.5v.8Z"/>
        <path class="cls-4" d="M193.2,118.1c.1.3.2.6.2,1.1,0,1.1-.5,1.6-1.6,1.6s-1.6-.4-1.6-1.4.6-1.5,1.8-1.5v2.2c.4,0,.8-.3.8-.9s-.1-.8-.3-1h.8,0ZM191.6,118.6c-.4,0-.8.2-.8.6s.2.6.8.8v-1.4h0Z"/>
        <path class="cls-4" d="M193.4,115.3h-.4c.3.2.5.5.5,1s-.3,1.1-1,1.1-1.1-.3-1.1-1.5v-.5c-.5,0-.6.2-.6.6s.1.6.3,1h-.6c-.1-.2-.2-.6-.2-1.1,0-1,.3-1.3,1.3-1.3h1.8v.8h0ZM192,115.4v.3c0,.5.2.9.5.9s.4-.2.4-.5-.2-.8-.9-.8h-.1Z"/>
        <path class="cls-4" d="M192.7,114c.1-.2.2-.5.2-.8s0-.5-.4-.5-.3.2-.4.5c-.1.5-.3.9-.9.9s-1-.5-1-1.2,0-.5.1-.9h.6c0,.3-.1.5-.1.8s.1.4.3.4.2-.2.3-.5c.1-.5.4-.9,1-.9s1,.5,1,1.3,0,.6-.1.9h-.6Z"/>
        <path class="cls-4" d="M193.2,108.7c.1.3.2.6.2,1.1,0,1.1-.5,1.6-1.6,1.6s-1.6-.4-1.6-1.4.6-1.5,1.8-1.5v2.2c.4,0,.8-.3.8-.9s-.1-.8-.3-1h.8,0ZM191.6,109.2c-.4,0-.8.2-.8.6s.2.6.8.8v-1.4h0Z"/>
        <path class="cls-4" d="M193.4,106.2h-4.5v-.8h1.8c-.3-.2-.4-.5-.4-1,0-.9.6-1.3,1.6-1.3s1.6.4,1.6,1.3-.2.8-.4,1h.4v.8h-.1ZM191.9,104c-.4,0-1,.2-1,.6s.5.8,1,.8,1-.2,1-.8-.5-.6-1-.6Z"/>
        <path class="cls-4" d="M193.2,100c.1.3.2.6.2,1.1,0,1.1-.5,1.6-1.6,1.6s-1.6-.4-1.6-1.4c0-1,.6-1.5,1.8-1.5v2.2c.4,0,.8-.3.8-.9s-.1-.8-.3-1h.8,0ZM191.6,100.6c-.4,0-.8.2-.8.6s.2.6.8.8v-1.4h0Z"/>
        <path class="cls-4" d="M193.4,95.6h-.4c.3.2.5.5.5,1s-.3,1.1-1,1.1-1.1-.3-1.1-1.5v-.5c-.5,0-.6.2-.6.6s.1.6.3,1h-.6c-.1-.2-.2-.6-.2-1.1,0-1,.3-1.3,1.3-1.3h1.8v.8h0ZM192,95.7v.3c0,.5.2.9.5.9s.4-.2.4-.5-.2-.8-.9-.8h-.1Z"/>
        <path class="cls-4" d="M193.4,92.3v.5c0,.6-.4,1-1,1h-1.6v.5h-.5v-.5h-.6l-.2-.8h.9v-.8h.5v.8h1.4c.3,0,.5,0,.5-.4s0-.3,0-.3h.6Z"/>
        <path class="cls-4" d="M193.4,90.2h-4.5v-.8h1.8c-.3-.2-.4-.5-.4-1,0-.9.6-1.3,1.6-1.3s1.6.4,1.6,1.3-.2.8-.4,1h.4v.8h-.1ZM191.9,87.9c-.4,0-1,.2-1,.6s.5.8,1,.8,1-.2,1-.8-.5-.6-1-.6Z"/>
        <path class="cls-4" d="M193.6,85.1c0,1-.6,1.6-1.6,1.6s-1.6-.6-1.6-1.6.6-1.6,1.6-1.6,1.6.6,1.6,1.6ZM191.8,84.2c-.5,0-1,.2-1,.8s.4.8,1,.8,1.1-.2,1.1-.8-.4-.8-1.1-.8Z"/>
        <path class="cls-4" d="M193.4,80.9h-.4c.3.2.5.5.5,1s-.3,1.1-1,1.1-1.1-.3-1.1-1.5v-.5c-.5,0-.6.2-.6.6s.1.6.3,1h-.6c-.1-.2-.2-.6-.2-1.1,0-1,.3-1.3,1.3-1.3h1.8v.8h0ZM192,81v.3c0,.5.2.9.5.9s.4-.2.4-.5-.2-.8-.9-.8h-.1Z"/>
        <path class="cls-4" d="M193.4,79.5h-3.1v-.8h.6c-.3,0-.8-.4-.8-.9s0-.2,0-.2h.9v.3c0,.3.1.6,1.1.6h1.3v.8h0Z"/>
        <path class="cls-4" d="M193.4,75.2h-.3c.3.2.4.5.4,1,0,1-.8,1.3-1.6,1.3s-1.6-.4-1.6-1.3.1-.6.4-1h-1.7v-.8h4.5v.8h-.1ZM191.9,75.2c-.4,0-1,.2-1,.8s.5.6,1,.6,1-.1,1-.6-.5-.8-1-.8Z"/>
        <path class="cls-4" d="M189.8,73.5h-.8v-.8h.8v.8ZM193.4,73.5h-3.1v-.8h3.1v.8Z"/>
        <path class="cls-4" d="M193.4,69.9h-1.7c-.4,0-.8,0-.8.5s.5.8,1.1.8h1.5v.8h-3.1v-.8h.4c-.3-.2-.5-.5-.5-1,0-.8.4-1.1,1.2-1.1h1.9v.9h0Z"/>
        <path class="cls-4" d="M193,66.2h0c.3.2.5.5.5,1,0,.9-.6,1.3-1.5,1.3s-1.6-.4-1.6-1.3.1-.8.5-1h-.4v-.8h2.8c1.1,0,1.6.5,1.6,1.6s0,.6-.2,1.1h-.6c.1-.3.2-.8.2-1,0-.8-.4-1-1.1-1,0,0-.2,0-.2,0ZM191.9,66.2c-.4,0-1,.2-1,.6s.4.8,1,.8,1-.2,1-.6-.4-.8-1-.8h0Z"/>
        <path class="cls-4" d="M193,60.9h0c.3.2.5.5.5,1,0,.9-.6,1.3-1.5,1.3s-1.6-.4-1.6-1.3.1-.8.5-1h-.4v-.8h2.8c1.1,0,1.6.5,1.6,1.6s0,.6-.2,1.1h-.6c.1-.3.2-.8.2-1,0-.8-.4-1-1.1-1,0,0-.2,0-.2,0ZM191.9,60.9c-.4,0-1,.2-1,.6s.4.8,1,.8,1-.2,1-.6-.4-.8-1-.8h0Z"/>
        <path class="cls-4" d="M193.4,57.3h-.4c.3.2.5.5.5,1s-.3,1.1-1,1.1-1.1-.3-1.1-1.5v-.5c-.5,0-.6.2-.6.6s.1.6.3,1h-.6c-.1-.2-.2-.6-.2-1.1,0-1,.3-1.3,1.3-1.3h1.8v.8h0ZM192,57.4v.3c0,.5.2.9.5.9s.4-.2.4-.5-.2-.8-.9-.8h-.1Z"/>
        <path class="cls-4" d="M193.4,54.1v.5c0,.6-.4,1-1,1h-1.6v.5h-.5v-.5h-.6l-.2-.8h.9v-.8h.5v.8h1.4c.3,0,.5,0,.5-.4s0-.3,0-.3h.6Z"/>
        <path class="cls-4" d="M193.2,51c.1.3.2.6.2,1.1,0,1.1-.5,1.6-1.6,1.6s-1.6-.4-1.6-1.4.6-1.5,1.8-1.5v2.2c.4,0,.8-.3.8-.9s-.1-.8-.3-1h.8,0ZM191.6,51.6c-.4,0-.8.2-.8.6s.2.6.8.8v-1.4h0Z"/>
      </g>
      <g>
        <path class="cls-4" d="M210.7,69v.5c0,.6-.4,1-1,1h-1.6v.5h-.5v-.5h-.6l-.2-.8h.9v-.8h.5v.8h1.4c.3,0,.5,0,.5-.4s0-.3,0-.3h.6Z"/>
        <path class="cls-4" d="M210.7,66.5h-1.7c-.5,0-.8.2-.8.5s.4.8,1.1.8h1.5v.8h-4.5v-.8h1.8c-.3-.2-.5-.5-.5-1,0-.8.5-1.1,1.2-1.1h1.9v.8h0Z"/>
        <path class="cls-4" d="M210.5,62.4c.1.3.2.6.2,1.1,0,1.1-.5,1.6-1.6,1.6s-1.6-.4-1.6-1.4.6-1.5,1.8-1.5v2.2c.4,0,.8-.3.8-.9s-.1-.8-.3-1h.8,0ZM208.9,62.9c-.4,0-.8.2-.8.6s.2.6.8.8v-1.4h0Z"/>
        <path class="cls-4" d="M210.7,57.7h-.3c.3.2.4.5.4,1,0,1-.8,1.3-1.6,1.3s-1.6-.4-1.6-1.3.1-.6.4-1h-1.7v-.8h4.5v.8h-.1ZM209.1,57.9c-.4,0-1,.2-1,.8s.5.6,1,.6,1-.2,1-.6-.5-.8-1-.8Z"/>
        <path class="cls-4" d="M210.5,53.7c.1.3.2.6.2,1.1,0,1.1-.5,1.6-1.6,1.6s-1.6-.4-1.6-1.4.6-1.5,1.8-1.5v2.2c.4,0,.8-.3.8-.9s-.1-.8-.3-1h.8,0ZM208.9,54.3c-.4,0-.8.2-.8.6s.2.6.8.8v-1.4h0Z"/>
        <path class="cls-4" d="M211.9,52.9h-4.3v-.8h.4c-.3-.2-.5-.5-.5-1,0-.9.6-1.3,1.6-1.3s1.6.4,1.6,1.3-.1.6-.4.9h1.6v.8h0ZM209.1,50.6c-.4,0-1,0-1,.6s.5.8,1,.8,1-.2,1-.8-.5-.6-1-.6Z"/>
        <path class="cls-4" d="M210.7,47.3h-.4c.3.2.5.5.5,1s-.3,1.1-1,1.1-1.1-.3-1.1-1.5v-.5c-.5,0-.6.2-.6.6s.1.6.3,1h-.6c-.1-.2-.2-.6-.2-1.1,0-1,.3-1.3,1.3-1.3h1.8v.8h0ZM209.2,47.4v.3c0,.5.2.9.5.9s.4-.2.4-.5-.2-.8-.9-.8h-.1Z"/>
        <path class="cls-4" d="M210.7,45.9h-3.1v-.8h.6c-.3,0-.8-.4-.8-.9s0-.2,0-.2h.9v.3c0,.3.1.6,1.1.6h1.3v.8h0Z"/>
        <path class="cls-4" d="M210.7,41.6v.5c0,.6-.4,1-1,1h-1.6v.5h-.5v-.5h-.6l-.2-.8h.9v-.8h.5v.8h1.4c.3,0,.5,0,.5-.4s0-.3,0-.3h.6Z"/>
        <path class="cls-4" d="M210.7,39h-.4c.3.2.5.6.5,1,0,.6-.4,1.1-1.2,1.1h-1.9v-.8h1.7c.6,0,.8-.2.8-.5,0-.5-.4-.8-1.1-.8h-1.5v-.8h3.1v.8h0Z"/>
        <path class="cls-4" d="M210.7,37.4h-3.1v-.8h.6c-.3,0-.8-.4-.8-.9s0-.2,0-.2h.9v.3c0,.3.1.6,1.1.6h1.3v.8h0Z"/>
        <path class="cls-4" d="M210.5,32.8c.1.3.2.6.2,1.1,0,1.1-.5,1.6-1.6,1.6s-1.6-.4-1.6-1.4.6-1.5,1.8-1.5v2.2c.4,0,.8-.3.8-.9s-.1-.8-.3-1h.8,0ZM208.9,33.3c-.4,0-.8.2-.8.6s.2.6.8.8v-1.4h0Z"/>
        <path class="cls-4" d="M210.7,28.4v.5c0,.6-.4,1-1,1h-1.6v.5h-.5v-.5h-.6l-.2-.8h.9v-.8h.5v.8h1.4c.3,0,.5,0,.5-.4s0-.3,0-.3h.6Z"/>
        <path class="cls-4" d="M207.1,27.9h-.8v-.8h.8v.8ZM210.7,27.9h-3.1v-.8h3.1v.8Z"/>
        <path class="cls-4" d="M210.7,22.5h-1.9c-.4,0-.6.2-.6.4s.4.6,1,.6h1.5v.8h-1.9c-.4,0-.6.2-.6.4s.4.6,1,.6h1.5v.8h-3.1v-.8h.4c-.3-.2-.5-.5-.5-1s.1-.8.5-.9c-.3-.2-.5-.5-.5-1,0-.6.4-1,1.2-1h1.9v.8h.3,0Z"/>
        <path class="cls-4" d="M210.5,18.4c.1.3.2.6.2,1.1,0,1.1-.5,1.6-1.6,1.6s-1.6-.4-1.6-1.4.6-1.5,1.8-1.5v2.2c.4,0,.8-.3.8-.9s-.1-.8-.3-1h.8,0ZM208.9,18.9c-.4,0-.8.2-.8.6s.2.6.8.8v-1.4h0Z"/>
      </g>
      <g>
        <path class="cls-4" d="M204.8,125.6h-1.5l-.9-1c-1.5-1.7-2.9-2.7-3.8-2.7s-1.2.7-1.2,1.5.2,1.3.7,2.1l-1.5.2c-.4-.8-.6-1.7-.6-2.6,0-1.7.9-2.7,2.6-2.7s2.6.7,5,3.2v-3.5h1.4v5.8h0v-.2h0Z"/>
        <path class="cls-4" d="M200.4,118.7c-2.7,0-4.5-.9-4.5-3s1.5-3.1,4.5-3.1,4.4,1,4.4,3.1-1.5,3-4.4,3ZM200.4,114.4c-1.3,0-3.2,0-3.2,1.3s1.9,1.3,3.2,1.3,3.2,0,3.2-1.3-1.9-1.3-3.2-1.3h0Z"/>
        <path class="cls-4" d="M204.8,100.2h-4c-.9,0-1.3.3-1.3.9,0,.9.8,1.3,2.1,1.3h3.2v1.7h-4c-.9,0-1.3.3-1.3.9s.9,1.3,2.1,1.3h3.2v1.7h-6.4v-1.5h.9c-.7-.4-1-1.1-1-1.9s.3-1.5,1.1-1.9c-.7-.3-1.1-1.1-1.1-2.1,0-1.4.9-2.1,2.5-2.1h4.1v1.7h0v-.2h0Z"/>
        <path class="cls-4" d="M197.2,96.8h-1.6v-1.7h1.6v1.7ZM204.8,96.8h-6.4v-1.7h6.4v1.7Z"/>
        <path class="cls-4" d="M204.8,89.2h-3.6c-.9,0-1.6.2-1.6,1.1s1,1.5,2.1,1.5h3.1v1.7h-6.4v-1.6h.9c-.8-.5-1-1.2-1-2.1,0-1.5,1-2.1,2.5-2.1h4v1.7h0Z"/>
        <path class="cls-4" d="M204.8,81.4h-.9c.7.5,1,1.3,1,2.1,0,1.5-.9,2.1-2.5,2.1h-4v-1.7h3.7c1.3,0,1.6-.4,1.6-1.1,0-1-.9-1.5-2.1-1.5h-3.1v-1.7h6.4v1.6h-.2Z"/>
        <path class="cls-4" d="M204.8,74.3c0,.3.2.8.2,1.2,0,1.4-.9,2.1-2.1,2.1h-3.2v1.2h-1.2v-1.2h-1.3l-.5-1.7h1.8v-1.5h1.2v1.5h3c.7,0,1-.2,1-.8s0-.6-.2-.8h1.4,0Z"/>
        <path class="cls-4" d="M204.4,68.1c.3.6.5,1.3.5,2.2,0,2.1-1.2,3.3-3.3,3.3s-3.4-.9-3.4-3,1.4-3.1,3.8-3.1v4.4c1,0,1.6-.8,1.6-1.9s-.3-1.5-.7-2.1h1.5ZM200.9,69.3c-.9,0-1.5.5-1.5,1.4s.5,1.4,1.5,1.5v-2.8h0Z"/>
        <path class="cls-4" d="M203.2,66.6c.3-.5.4-1,.4-1.6s-.2-1.1-.8-1.1-.7.5-.9,1.2c-.3,1.1-.8,1.7-1.8,1.7s-2-1.1-2-2.6,0-1,.3-1.8h1.3c-.2.7-.3,1-.3,1.6s.3,1,.7,1,.5-.3.8-1.1c.3-1.2.9-1.8,2-1.8s2.1,1.2,2.1,2.7,0,1.3-.3,1.9h-1.4c0,0-.2-.2-.2-.2h0Z"/>
        <path class="cls-4" d="M204.8,57.4h-9.3v-1.7h3.8c-.6-.4-.9-1-.9-1.9,0-1.8,1.4-2.7,3.3-2.7s3.3.9,3.3,2.7-.3,1.5-.9,2h.8v1.6h0ZM201.5,52.9c-1,0-2.1.3-2.1,1.4s1.1,1.5,2.1,1.5,2.1-.4,2.1-1.5-1.1-1.5-2.1-1.5h0Z"/>
        <path class="cls-4" d="M204.4,44.6c.3.6.5,1.3.5,2.2,0,2.1-1.2,3.3-3.3,3.3s-3.4-.9-3.4-3,1.4-3.1,3.8-3.1v4.4c1,0,1.6-.8,1.6-1.9s-.3-1.5-.7-2.1h1.5ZM200.9,45.8c-.9,0-1.5.5-1.5,1.4s.5,1.4,1.5,1.5v-2.8h0Z"/>
        <path class="cls-4" d="M204.8,42.3h-5.2v1.2h-1.2v-1.2h-.9c-1.1,0-2.1-.6-2.1-2.1s0-.9.2-1.2l1.4.2c-.2.3-.3.4-.3.7,0,.5.3.8.9.8h.8v-1.5h1.2v1.5h5.2v1.7h0Z"/>
        <path class="cls-4" d="M204.9,35.1c0,2.1-1.5,3.3-3.3,3.3s-3.4-1.4-3.4-3.3,1.4-3.3,3.4-3.3,3.3,1.3,3.3,3.3ZM201.4,33.4c-1,0-1.9.5-1.9,1.6s.9,1.6,1.9,1.6,2.2-.5,2.2-1.6-.9-1.6-2.2-1.6Z"/>
        <path class="cls-4" d="M204.8,30.4h-6.4v-1.5h1.5c-.7,0-1.6-.8-1.6-1.8s0-.4,0-.5h1.7c0,.2-.2.4-.2.8,0,.6.3,1.4,2.3,1.4h2.6v1.7h0Z"/>
        <path class="cls-4" d="M204.4,20.6c.3.6.5,1.3.5,2.2,0,2.1-1.2,3.3-3.3,3.3s-3.4-.9-3.4-3,1.4-3.1,3.8-3.1v4.4c1,0,1.6-.8,1.6-1.9s-.3-1.5-.7-2.1h1.5ZM200.9,21.7c-.9,0-1.5.5-1.5,1.4s.5,1.4,1.5,1.5v-2.8h0Z"/>
      </g>
    </g>
    <g>
      <path class="cls-4" d="M216.2,125.7h1.6v-1.4h-2.2v-.8h2.2v-1.4h-1.6v-.9h2.4v2.2h2.3v-1.6h-1.8v-.8h2.6v5.6h-2.6v-.8h1.8v-1.6h-2.3v2.2h-2.4v-.8h0Z"/>
      <path class="cls-4" d="M216.2,115.1l.3-.6c.3.3.6.5.9.8.2-.3.3-.6.4-.9l.8.3c0,.3-.3.6-.4.9h.3v.8h.6v-1.7h.7v1.7h.9c.1,0,.2,0,.2-.2v-.7c0-.3,0-.3-.8-.3v-.8c1,0,1.5,0,1.5.7v1.5c0,.3-.2.5-.4.5h-1.4v.9c1.1.2,1.6,1,1.9,2.1l-.8.4c0-.7-.4-1.6-1.1-1.7v1.6h-.7v-1.6h-.6v.7h-.3c.2.3.3.5.4.9l-.8.3c0-.3-.3-.6-.4-1-.3.3-.3.4-.6.7l-.3-.3h-.6v-2.9c.2-.2.3-.3.5-.4-.3-.3-.4-.4-.7-.7l.3-.6c.3.3.5.5.8.8,0,0,.2-.2.3-.3-.3-.3-.5-.5-.9-.8h0,0ZM216.5,118.5v1.3c.2-.3.3-.4.5-.6-.2-.3-.3-.4-.5-.6h0ZM216.5,117.6c.5.4.9.8,1.2,1.3v-2.7c-.3.5-.8,1-1.2,1.3h0ZM218.5,118h.6v-.8h-.6v.8Z"/>
      <path class="cls-4" d="M215.9,112h5.5v2.1h-5.5s0-2.1,0-2.1ZM216.7,113.3h1.6v-.6h-1.6v.6ZM219,113.3h1.6v-.6h-1.6v.6ZM221.1,108.7c.2,0,.3,0,.5.2.2,0,.2.3.2.4v1.1l-.8.2v-.9c0,0,0-.2-.2-.2h-1.2v2.3h-.8v-2.3h-.5v2.3h-.8v-1.5h-.6v1.2h-.7v-1.2h-.5v-.8h.5v-1.3h.7v1.3h.6v-1.5h.8v.6h.5v-.5h.8v.5h1.5,0ZM220.7,110.1l.4.7c-.5.3-.7.3-1.1.8l-.3-.7c.4-.3.6-.5,1-.8h0Z"/>
      <path class="cls-4" d="M218.1,107.7l-.6-.4c0,0,.2-.2.2-.3-.2-.2-.4-.3-.6-.4v1.2h-.8v-1.5h-.7v-.8h.7v-1.5h.8v1.6c.4.3.8.5,1.1.8,0,0,.2-.2.3-.3-.3-.3-.8-.7-1.3-.9l.3-.6c1.3.7,2.1,1.5,2.8,2.9l-.7.4c-.2-.4-.3-.8-.6-1.1-.3.3-.7.6-1,1h0ZM221,103.9l.7.5c-.3.4-.6.8-1,1.1.5.6.9,1.1,1.1,1.8l-.7.4c-.6-1.5-1.4-2.5-2.9-3.2l.3-.6c.5.3,1,.6,1.5,1,.4-.3.6-.6,1-1h0ZM216,103.1h4.2v.8h-4.2v-.8ZM215.7,101.9h5.4c.5,0,.7.2.7.7v.9l-.8.2v-.9c0,0,0-.2-.2-.2h-5.1v-.8h0Z"/>
      <path class="cls-4" d="M216.1,99.7c1,.3,2,.3,3,.3s1.4,0,2.1-.3v.9c-.6.2-1.4.3-2.1.3-1,0-2.1,0-3.1-.3v-.9h0ZM216,97.7v-.9h1.1c0-.3,0-.6,0-1h.9c0,.3,0,.6,0,1h1.6c.2-.5.3-.9.7-1.2l.8.3c-.3.3-.3.5-.5.9.2,0,.3,0,.5,0,.4.2.6.7.6,1.2s-.3,1.5-1.1,1.5-.9-.3-1-.7c0-.2,0-.4,0-.7v-.5h-1.2v1.8h-.9v-1.7h-1.3,0ZM219.9,98.1c0,.3,0,.6.3.6s.4-.3.4-.6c0-.4-.2-.5-.6-.5h0c-.2.2-.2.3-.2.5h0Z"/>
      <path class="cls-4" d="M218.4,92.8h-1.5v-.8h1.5v-1.2c-.5.4-1.1.4-1.7.5v3.6h-.8v-4.3h1.4l-.5-.3c0-.4.3-.7.4-1l.5.3.3-.3c.3.2.6.3.7.7l.3-.4c.3.2.4.4.6.7l-.3.5c-.2-.2-.3-.3-.4-.5,0,.2,0,.4-.3.6.8,0,1.1,0,1.6,0l-.5-.3c0-.3.3-.8.4-1l.4.3.3-.3c.4.2.9.3.9,1s0,.4-.3.6c0,.2-.3.3-.5.4-.3.2-.8.3-1.2.3h-.7v.7h2.7v.8h-2.7v.8h.2c1,0,1.9.3,2.6,1l-.5.8c-.3-.3-.5-.4-.9-.6s-.9-.3-1.3-.3h0v.8h-.8v-.8h-.4v.6l-.7.2c0-.6-.2-1.5-.4-2l.7-.3c0,.3.2.4.3.7h.6v-.8h0v-.3h0ZM220.7,90.3c0,0,.2-.2.2-.3s0-.3-.3-.3c-.2.3-.3.6-.4.9.2,0,.3,0,.5-.2h0ZM217.3,90.5c.3,0,.8-.3.8-.5s-.2-.3-.3-.3c-.2.3-.3.5-.3.9h0ZM216.7,89.9l-.3.6c-.2-.2-.4-.4-.7-.5l.3-.6c.3.2.5.3.7.6h0Z"/>
      <path class="cls-4" d="M217.8,88.4l-.8.4c-.3-.6-.8-1-1.3-1.3l.3-.7c.7.3,1.4,1,1.8,1.6h0ZM221.7,87.3v.8h-2.4c.2.2.3.3.3.4l-1,.3c-.4-.7-1.1-1.2-1.8-1.6l.3-.7c.4.2.8.4,1.2.7h3.3ZM218.5,82.7v1h2.7c.4,0,.6.2.6.6v1.3l-.9.2v-1c0-.1,0-.2-.2-.2h-2.3v2.2h-.8v-4h.8ZM216.7,82.9v3.5h-.8v-3.5h.8Z"/>
      <path class="cls-4" d="M221.7,80.3l-.5.5c-.6-.3-1-.4-1.8-.4v.2h-.4l.5.2c-.2,0-.3.2-.5.3h2.7v.7h-2.3c.3,0,.6.2,1,.3l-1,.3c-.5-.3-1.2-.5-1.8-.6v.5h-.8v-.6h-1.1v-.7h1.1v-.3h.8v.3h.3c.3-.2.5-.3.8-.5v-1.7c-.6,0-1.6.2-2.3.2.3.3,1,.8,1.3,1v-.5c0,0-.2,0-.3,0l-.2-.4c.3-.2.7-.3,1-.3l.2.5h-.3c0,.4,0,.9,0,1.3h-.5c-.2-.2-.4-.3-.6-.5-.3.2-.4.4-.7.7l-.5-.3s0,0,0-.2c-.2-.2-.3-.3-.5-.3l.2-.5c.3.2.5.3.7.5,0,0,.2-.2.3-.2-.2-.2-.3-.3-.5-.4l.3-.4h-.8v-.7h.8l-.3-.3h0c-.2-.2-.3-.3-.5-.4l.2-.5c.3.2.5.3.8.5,0,0,.2,0,.2-.2-.2-.2-.3-.3-.5-.4l.2-.5c.5.3.9.6,1.3,1v-.6c0,0-.2,0-.3,0l-.2-.4c.3-.2.7-.3,1-.3l.2.5h-.3v.4c0-.2.3-.3.3-.3l.2.3v-.9h.7v1.6c.3,0,.4,0,.7-.2-.2-.2-.3-.3-.6-.5l.3-.6c.4.3.7.5,1,.9,0,0,.3-.2.3-.3s-.5-.4-.7-.4l.6-.4c.4.2.9.4.9,1s-.2.7-.5,1c.3.4.3.7.5,1.2l-.6.3c0-.4-.3-.8-.5-1.2-.3.2-.8.3-1.1.3v1h.3c0-.3.3-.6.4-1l.6.3c-.2.2-.3.4-.4.7.5,0,1,.2,1.4.5h0v.2h0ZM217.2,77.7c-.2.2-.4.3-.6.5h1.1c-.2-.2-.3-.3-.5-.4h0ZM218.4,77.7l-.2-.3v.6h.5v-.7c0,0-.3.3-.3.4h0Z"/>
      <path class="cls-4" d="M217.6,72.3c.3-.3.9-.4,1.4-.4s1.6,0,2.1.3c.3.3.4.6.4,1v.6h-.9c0-.2,0-.3,0-.5,0-.3,0-.5-.4-.6s-.9,0-1.2,0c-.5,0-.9,0-.9.7s0,.2,0,.3c1.2.3,2.4.8,3.5,1.4l-.5.8c-1-.6-1.8-1-2.9-1.3,0,.4,0,.8.2,1.2h-.9c0,0-.2-1.4-.2-1.4-.4,0-1-.2-1.4-.3l.2-.9c.4,0,.8.2,1.2.3,0-.4,0-.9.3-1.1h-.2ZM219.4,70.3l.3.8c-1,0-1.9.4-2.6,1.2l-.4-.6c.8-.8,1.6-1.2,2.8-1.4h0ZM215.9,71.2c.3-.3.7-.6,1.1-.9l.3.4c-.4.3-.8.4-1.1.8l-.3-.4h0ZM215.5,70.5c.3-.3.7-.6,1.1-.9l.3.4c-.4.3-.8.4-1.1.8l-.3-.4h0Z"/>
      <path class="cls-4" d="M221.7,69.3h-.7v-1.4h-.3v1.3h-.6v-1.3h-.3v1.2h-2.3v-1.2h-.3v1.4h-.6v-1.4h-.3v1.3h-.6c0-1,0-1.9-.2-2.9l.6-.2c0,.4,0,.9.2,1.2h.3v-1.4h.6v1.4h.3v-1.2h2.3v1.2h.3v-1.3h.6v1.3h.3c0-.4,0-.8,0-1.2-.6-.4-1.2-.5-1.9-.7-.4,0-.8,0-1.2,0v.4h-.8v-.4h-1.2v-.8h1.2v-1.1h3.4c.3,0,.8,0,1,.2s.3.3.3.7v.6h-.8c0,0,0-.3,0-.3,0-.3,0-.3-.3-.3-.4,0-2.3,0-2.9,0v.4c.7,0,1.4,0,2.1.3.7.2,1.4.4,2,1l-.3.4c0,1,.2,2.1.2,3.1h0ZM218,68.6h.3v-.5h-.3v.5ZM218.8,68.6h.3v-.5h-.3v.5ZM218,67.3h.3v-.6h-.3v.6ZM218.8,67.3h.3v-.6h-.3v.6Z"/>
      <path class="cls-4" d="M217.6,59.5c0-.6-.2-1-.4-1.5l.7-.3c.2.4.3.9.3,1.4.4-.3.9-.6,1.2-.9l.4.4c-.2.4-.3.9-.3,1.4h-.6c0,0,0-.3,0-.5-.2.2-.4.3-.7.4.2,1,.2,1.9.3,2.9h-.8c0,0,0-.3,0-.3,0-.8,0-1.5-.2-2.3-.2,0-.3.2-.4.3,0,.8,0,1.4,0,2.1h-.8v-1.8c-.2,0-.4.2-.6.3l-.2-.9c.3,0,.4-.2.7-.3,0-.5-.2-1-.4-1.5l.7-.3c.2.4.3,1,.3,1.5.2,0,.3-.2.4-.3h.2ZM220.1,61.6c.3,0,.3-.2.4-.4s.2-.8.2-1.1c0-.6,0-1.1-.2-1.7h.9c0,.6.2,1.1.2,1.6,0,.9,0,2.4-1.3,2.4s-.8-.3-1-.7l.5-.5c0,.2.3.4.5.4h-.2Z"/>
      <path class="cls-4" d="M216.2,55.9h1.6v-1.4h-2.2v-.8h2.2v-1.4h-1.6v-.9h2.4v2.2h2.3v-1.6h-1.8v-.8h2.6v5.6h-2.6v-.8h1.8v-1.6h-2.3v2.2h-2.4v-.8h0Z"/>
      <path class="cls-4" d="M216.6,46.4v-1.2h.8v1.7h1.9c1.3,0,2,.6,2.4,1.7l-.7.6c-.2-.5-.4-1-.9-1.3,0,.2.2.3.2.6,0,.7-.6,1.2-1.3,1.2s-1.3-.5-1.3-1.3,0-.4.2-.7h-.4v1.8c0,.4,0,.8,0,1.2h-.9v-2.9h-.8v-.8h.8v-.7h0ZM219,47.7c-.3,0-.6.2-.6.5s.3.5.6.5.6-.2.6-.5-.3-.5-.6-.5Z"/>
      <path class="cls-4" d="M215.9,42.5h5.5v2.1h-5.5s0-2.1,0-2.1ZM216.7,43.9h1.6v-.6h-1.6v.6ZM219,43.9h1.6v-.6h-1.6v.6ZM221.1,39.3c.2,0,.3,0,.5.2s.2.3.2.4v1.1l-.8.2v-.9s0-.2-.2-.2h-1.2v2.3h-.8v-2.3h-.5v2.3h-.8v-1.5h-.6v1.2h-.7v-1.2h-.5v-.8h.5v-1.3h.7v1.3h.6v-1.5h.8v.6h.5v-.5h.8v.5h1.5,0ZM220.7,40.8l.4.7c-.5.3-.7.3-1.1.8l-.3-.7c.4-.3.6-.5,1-.8Z"/>
      <path class="cls-4" d="M215.9,35.6h2.4v1.7h3.4v.8h-5.8s0-2.5,0-2.5ZM216.5,37.3h.3v-1h-.3v1ZM217.3,37.3h.3v-1h-.3v1ZM221,33.4c0-.1,0-.2-.2-.2h-2.4v1.8h-2.4v-2.6h5.2c.3,0,.6,0,.6.5v1.1h-.6v2.7h-2.4v-2.9h2.3v-.4h0ZM219.2,36h.3v-1.5h-.3v1.5ZM220.1,36h.4v-1.5h-.4v1.5ZM216.5,34.3h.3v-1.1h-.3v1.1ZM217.3,34.3h.3v-1.1h-.3v1.1Z"/>
      <path class="cls-4" d="M216.5,30.6l-.3-4.3h.9c0,.6,0,1.1.4,1.7s.9,1.1,1.6,1.1,1.4-1.1,1.4-2l.9.4c-.2,1.2-.8,2.4-2.2,2.4s-1.3-.3-1.7-.8c-.2-.2-.3-.4-.4-.6l.3,3h-.9v-1h0ZM217.9,27.5c.3-.3.8-.5,1.2-.7l.3.5c-.5.2-.8.4-1.2.7l-.3-.5h0ZM217.4,26.6c.3-.3.8-.5,1.2-.8l.3.5c-.5.3-.8.4-1.2.7l-.3-.5h0Z"/>
      <path class="cls-4" d="M216.6,21.3v-1.2h.8v1.7h1.9c1.3,0,2,.6,2.4,1.7l-.7.6c-.2-.5-.4-1-.9-1.3,0,.2.2.3.2.6,0,.7-.6,1.2-1.3,1.2s-1.3-.5-1.3-1.3,0-.4.2-.7h-.4v1.8c0,.4,0,.8,0,1.2h-.9v-2.9h-.8v-.8h.8v-.7h0ZM219,22.6c-.3,0-.6.2-.6.5s.3.5.6.5.6-.2.6-.5-.3-.5-.6-.5Z"/>
      <path class="cls-4" d="M220.4,17.9c.5,0,1,.4,1,1s-.4,1-1,1-1-.4-1-1,.4-1,1-1ZM220.4,19.4c.3,0,.6-.3.6-.6s-.3-.6-.6-.6-.6.3-.6.6.3.6.6.6Z"/>
    </g>
    <g>
      <path class="cls-4" d="M225.1,126.9h-2.9v-.8c0-1,.4-1.6,1.4-1.6s1.4.5,1.4,1.6v.8h0ZM224.7,126c0-.4-.3-1-1-1s-1,.4-1,1v.3h1.9v-.3h0Z"/>
      <path class="cls-4" d="M225,122.3c0,.2.2.4.2.7,0,.7-.4,1.1-1.1,1.1s-1.1-.3-1.1-1,.4-1,1.3-1v1.5c.3,0,.5-.3.5-.6s0-.5-.2-.7h.4,0ZM223.8,122.7c-.3,0-.5.2-.5.4s.2.4.5.4v-1h0Z"/>
      <path class="cls-4" d="M226,121.8h-2.9v-.5h.3c-.3-.2-.3-.3-.3-.7,0-.6.4-.9,1.1-.9s1.1.3,1.1.9,0,.4-.3.6h1.1v.5h0,0ZM224.1,120.2c-.3,0-.7,0-.7.4s.3.5.7.5.7,0,.7-.4-.3-.4-.7-.4h0Z"/>
      <path class="cls-4" d="M225.1,117.9h-.3c.3,0,.3.4.3.7s-.3.8-.6.8-.7-.2-.7-1v-.3c-.3,0-.4.2-.4.4s0,.4.3.7h-.4c0-.2-.2-.4-.2-.7,0-.6.3-.9.9-.9h1.3v.4h0,0ZM224.2,118v.3c0,.4,0,.6.3.6s.3,0,.3-.3-.2-.5-.6-.5h0Z"/>
      <path class="cls-4" d="M225.1,117h-2.1v-.5h.5c-.2,0-.5-.3-.5-.6s0-.2,0-.2h.5v.3c0,.2,0,.4.8.4h.9v.5h0Z"/>
      <path class="cls-4" d="M225.1,114.1v.4c0,.4-.3.7-.7.7h-1v.4h-.4v-.4h-.4l-.2-.5h.6v-.5h.4v.5h1c.2,0,.3,0,.3-.3v-.3h.4Z"/>
      <path class="cls-4" d="M225.1,112.4h-.3c.2.2.3.4.3.7,0,.4-.3.7-.8.7h-1.3v-.5h1.2c.4,0,.5-.2.5-.3,0-.3-.3-.4-.7-.4h-1v-.5h2.1v.5h0Z"/>
      <path class="cls-4" d="M225.1,111.3h-2.1v-.5h.5c-.2,0-.5-.3-.5-.6s0-.2,0-.2h.5v.3c0,.2,0,.4.8.4h.9v.5h0Z"/>
      <path class="cls-4" d="M225,108.2c0,.2.2.4.2.7,0,.7-.4,1.1-1.1,1.1s-1.1-.3-1.1-1,.4-1,1.3-1v1.5c.3,0,.5-.3.5-.6s0-.5-.2-.7h.4,0ZM223.8,108.5c-.3,0-.5.2-.5.4s.2.4.5.4v-1h0Z"/>
      <path class="cls-4" d="M225.1,105.2v.4c0,.4-.3.7-.7.7h-1v.4h-.4v-.4h-.4l-.2-.5h.6v-.5h.4v.5h1c.2,0,.3,0,.3-.3v-.3h.4Z"/>
      <path class="cls-4" d="M222.6,104.8h-.5v-.5h.5v.5ZM225.1,104.8h-2.1v-.5h2.1v.5Z"/>
      <path class="cls-4" d="M225.1,101.1h-1.3c-.3,0-.4,0-.4.3s.3.4.7.4h1v.5h-1.3c-.3,0-.4,0-.4.3s.3.4.7.4h1v.5h-2.1v-.5h.3c-.2-.2-.3-.3-.3-.6s0-.5.3-.6c-.3,0-.3-.3-.3-.7s.3-.7.8-.7h1.3v.5h0Z"/>
      <path class="cls-4" d="M225,98.4c0,.2.2.4.2.7,0,.7-.4,1.1-1.1,1.1s-1.1-.3-1.1-1,.4-1,1.3-1v1.5c.3,0,.5-.3.5-.6s0-.5-.2-.7h.4,0ZM223.8,98.8c-.3,0-.5.2-.5.4s.2.4.5.4v-1h0Z"/>
      <path class="cls-4" d="M222.6,96.6h-.5v-.5h.5v.5ZM225.1,96.6h-2.1v-.5h2.1v.5Z"/>
      <path class="cls-4" d="M224.6,95.6c0-.2.2-.3.2-.5s0-.3-.3-.3-.3.2-.3.4c0,.3-.3.5-.6.5s-.7-.3-.7-.9v-.6h.4c0,.3,0,.3,0,.5s0,.3.3.3.2,0,.3-.3c0-.4.3-.6.6-.6s.7.4.7.9,0,.4,0,.6h-.4Z"/>
      <path class="cls-4" d="M225.1,91.3v.4c0,.4-.3.7-.7.7h-1v.4h-.4v-.4h-.4l-.2-.5h.6v-.5h.4v.5h1c.2,0,.3,0,.3-.3v-.3h.4Z"/>
      <path class="cls-4" d="M225.1,89.6h-1.2c-.3,0-.5,0-.5.3s.3.4.7.4h1v.5h-3v-.5h1.2c-.2-.2-.3-.3-.3-.7,0-.5.3-.7.8-.7h1.3v.5h0Z"/>
      <path class="cls-4" d="M225,86.8c0,.2.2.4.2.7,0,.7-.4,1.1-1.1,1.1s-1.1-.3-1.1-1,.4-1,1.3-1v1.5c.3,0,.5-.3.5-.6s0-.5-.2-.7h.4,0ZM223.8,87.2c-.3,0-.5.2-.5.4s.2.4.5.4v-1h0Z"/>
      <path class="cls-4" d="M225.1,83.9v.4c0,.4-.3.7-.7.7h-1v.4h-.4v-.4h-.4l-.2-.5h.6v-.5h.4v.5h1c.2,0,.3,0,.3-.3v-.3h.4Z"/>
      <path class="cls-4" d="M222.6,83.5h-.5v-.5h.5v.5ZM225.1,83.5h-2.1v-.5h2.1v.5Z"/>
      <path class="cls-4" d="M225.1,79.9h-1.3c-.3,0-.4,0-.4.3s.3.4.7.4h1v.5h-1.3c-.3,0-.4,0-.4.3s.3.4.7.4h1v.5h-2.1v-.5h.3c-.2-.2-.3-.3-.3-.6s0-.5.3-.6c-.3,0-.3-.3-.3-.7s.3-.7.8-.7h1.3v.5h0Z"/>
      <path class="cls-4" d="M225,77.1c0,.2.2.4.2.7,0,.7-.4,1.1-1.1,1.1s-1.1-.3-1.1-1,.4-1,1.3-1v1.5c.3,0,.5-.3.5-.6s0-.5-.2-.7h.4,0ZM223.8,77.5c-.3,0-.5.2-.5.4s.2.4.5.4v-1h0Z"/>
      <path class="cls-4" d="M225.1,74.2v.4c0,.4-.3.7-.7.7h-1v.4h-.4v-.4h-.4l-.2-.5h.6v-.5h.4v.5h1c.2,0,.3,0,.3-.3v-.3h.4Z"/>
      <path class="cls-4" d="M225.1,72.5h-1.2c-.3,0-.5,0-.5.3s.3.4.7.4h1v.5h-3v-.5h1.2c-.2-.2-.3-.3-.3-.7,0-.5.3-.7.8-.7h1.3v.5h0Z"/>
      <path class="cls-4" d="M225,69.7c0,.2.2.4.2.7,0,.7-.4,1.1-1.1,1.1s-1.1-.3-1.1-1,.4-1,1.3-1v1.5c.3,0,.5-.3.5-.6s0-.5-.2-.7h.4,0ZM223.8,70c-.3,0-.5.2-.5.4s.2.4.5.4v-1h0Z"/>
      <path class="cls-4" d="M225.1,66.7h-.3c.3,0,.3.4.3.7s-.3.8-.6.8-.7-.2-.7-1v-.3c-.3,0-.4.2-.4.4s0,.4.3.7h-.4c0-.2-.2-.4-.2-.7,0-.6.3-.9.9-.9h1.3v.4h0,0ZM224.2,66.7v.3c0,.4,0,.6.3.6s.3,0,.3-.3-.2-.5-.6-.5h0Z"/>
      <path class="cls-4" d="M222.6,65.7h-.5v-.5h.5v.5ZM225.1,65.7h-2.1v-.5h2.1v.5Z"/>
      <path class="cls-4" d="M225.1,64.6h-2.1v-.5h.5c-.2,0-.5-.3-.5-.6s0-.2,0-.2h.5v.3c0,.2,0,.4.8.4h.9v.5h0Z"/>
      <path class="cls-4" d="M226,62.9h-2.9v-.5h.3c-.3-.2-.3-.3-.3-.7,0-.6.4-.9,1.1-.9s1.1.3,1.1.9,0,.4-.3.6h1.1v.5h0,0ZM224.1,61.5c-.3,0-.7,0-.7.4s.3.5.7.5.7,0,.7-.4-.3-.4-.7-.4h0Z"/>
      <path class="cls-4" d="M225.1,60.5h-3v-.5h3v.5Z"/>
      <path class="cls-4" d="M225.1,58.1h-.3c.3,0,.3.4.3.7s-.3.7-.6.7-.7-.2-.7-1v-.3c-.3,0-.4.2-.4.4s0,.4.3.7h-.4c0-.2-.2-.4-.2-.7,0-.6.3-.9.9-.9h1.3v.4h0,0ZM224.2,58.2v.3c0,.4,0,.6.3.6s.3-.2.3-.3-.2-.5-.6-.5h0Z"/>
      <path class="cls-4" d="M225.1,55.7h-1.2c-.3,0-.5,0-.5.3s.3.4.7.4h1v.5h-2.1v-.5h.3c-.3-.2-.3-.4-.3-.7,0-.4.3-.7.8-.7h1.3v.5h0Z"/>
      <path class="cls-4" d="M225,52.9c0,.2.2.4.2.7,0,.7-.4,1.1-1.1,1.1s-1.1-.3-1.1-1,.4-1,1.3-1v1.5c.3,0,.5-.3.5-.6s0-.5-.2-.7h.4,0ZM223.8,53.3c-.3,0-.5.2-.5.4s.2.4.5.4v-1h0Z"/>
      <path class="cls-4" d="M225.1,49.9v.4c0,.4-.3.7-.7.7h-1v.4h-.4v-.4h-.4l-.2-.5h.6v-.5h.4v.5h1c.2,0,.3,0,.3-.3v-.3h.4Z"/>
      <path class="cls-4" d="M225.1,48.6c0,.7-.4,1.1-1,1.1s-1.1-.4-1.1-1.1.4-1.1,1.1-1.1,1,.4,1,1.1ZM224,48.1c-.3,0-.6.2-.6.5s.3.5.6.5.7-.2.7-.5-.3-.5-.7-.5Z"/>
      <path class="cls-4" d="M225.1,46h-3v-.5h3v.5Z"/>
      <path class="cls-4" d="M225,43.2c0,.2.2.4.2.7,0,.7-.4,1.1-1.1,1.1s-1.1-.3-1.1-1,.4-1,1.3-1v1.5c.3,0,.5-.3.5-.6s0-.5-.2-.7h.4,0ZM223.8,43.5c-.3,0-.5.2-.5.4s.2.4.5.4v-1h0Z"/>
      <path class="cls-4" d="M225.1,41.4h-.3c.3,0,.3.4.3.7s-.3.7-.6.7-.7-.2-.7-1v-.3c-.3,0-.4.2-.4.4s0,.4.3.7h-.4c0-.2-.2-.4-.2-.7,0-.6.3-.9.9-.9h1.3v.4h0,0ZM224.2,41.4v.3c0,.4,0,.6.3.6s.3-.2.3-.3-.2-.5-.6-.5h0Z"/>
      <path class="cls-4" d="M225.1,39.8l-2.1.8v-.6l1.6-.5h0l-1.6-.5v-.5l2.1.8v.6h0Z"/>
      <path class="cls-4" d="M225,36.4c0,.2.2.4.2.7,0,.7-.4,1.1-1.1,1.1s-1.1-.3-1.1-1,.4-1,1.3-1v1.5c.3,0,.5-.3.5-.6s0-.5-.2-.7h.4,0ZM223.8,36.8c-.3,0-.5.2-.5.4s.2.4.5.4v-1h0Z"/>
      <path class="cls-4" d="M225.1,33.5v.4c0,.4-.3.7-.7.7h-1v.4h-.4v-.4h-.4l-.2-.5h.6v-.5h.4v.5h1c.2,0,.3,0,.3-.3v-.3h.4Z"/>
      <path class="cls-4" d="M225.1,31.7h-1.2c-.3,0-.5,0-.5.3s.3.4.7.4h1v.5h-3v-.5h1.2c-.2-.2-.3-.3-.3-.7,0-.5.3-.7.8-.7h1.3v.5h0Z"/>
      <path class="cls-4" d="M225,29c0,.2.2.4.2.7,0,.7-.4,1.1-1.1,1.1s-1.1-.3-1.1-1,.4-1,1.3-1v1.5c.3,0,.5-.3.5-.6s0-.5-.2-.7h.4,0ZM223.8,29.3c-.3,0-.5.2-.5.4s.2.4.5.4v-1h0Z"/>
      <path class="cls-4" d="M224.8,25.9h0c.2,0,.3.3.3.7,0,.6-.4.9-1,.9s-1.1-.3-1.1-.9,0-.5.3-.6h-.3v-.5h1.9c.7,0,1.1.3,1.1,1.1s0,.4-.2.7h-.4c0-.3.2-.5.2-.7,0-.5-.3-.6-.8-.6h0ZM224.1,25.9c-.3,0-.7,0-.7.4s.3.5.7.5.6-.2.6-.4-.3-.4-.7-.4h0,0Z"/>
      <path class="cls-4" d="M225.1,23.4h-.3c.3,0,.3.4.3.7s-.3.7-.6.7-.7-.2-.7-1v-.3c-.3,0-.4.2-.4.4s0,.4.3.7h-.4c0-.2-.2-.4-.2-.7,0-.6.3-.9.9-.9h1.3v.4h0,0ZM224.2,23.5v.3c0,.4,0,.6.3.6s.3-.2.3-.3-.2-.5-.6-.5h0Z"/>
      <path class="cls-4" d="M225.1,21.3v.4c0,.4-.3.7-.7.7h-1v.4h-.4v-.4h-.4l-.2-.5h.6v-.5h.4v.5h1c.2,0,.3,0,.3-.3v-.3h.4Z"/>
      <path class="cls-4" d="M225,19.2c0,.2.2.4.2.7,0,.7-.4,1.1-1.1,1.1s-1.1-.3-1.1-1,.4-1,1.3-1v1.5c.3,0,.5-.3.5-.6s0-.5-.2-.7h.4,0ZM223.8,19.6c-.3,0-.5.2-.5.4s.2.4.5.4v-1h0Z"/>
      <path class="cls-4" d="M225.1,18.7h-.6v-.6h.6v.6Z"/>
    </g>
  </g>
  <g class="cls-9">
    <g class="cls-9">
      <g class="cls-9">
        <path class="cls-4" d="M37.2,551c.2.4.4.7.5,1.2l-.8.4c-.4-1.3-1.2-2.3-2.3-3l.2-1c.2.1.4.3.6.4v-3.1h.8c1.1.7,1.9,1.5,2.6,2.6v-3.2h3.4v5.3h-2.3c.2.6.4,1.2.6,1.9l-.9.3c-.2-1.2-.5-2.1-1.1-3.2-.5.5-.8.9-1.3,1.5h0ZM39.6,549.8h1.8v-3.6h-1.8v3.6ZM36.2,547v2.7c.2.2.4.4.5.6.4-.6.7-1.1,1.3-1.6-.5-.7-1-1.2-1.8-1.8h0Z"/>
        <path class="cls-4" d="M37.2,540.8h5c.2.1.2.4.2.6v1l-.8.2v-.9q0-.2-.2-.2h-.8v1.5h1.8v.8h-5.2v-3.1h0ZM37,537.3h4.7c.2,0,.4,0,.5.2.1.1.2.4.2.6v1.3l-.8.2v-1.4h-4.5v-.9h0ZM37.3,540.1v-.8h3.6v.8h-3.6ZM39.3,543.1h.7v-1.5h-.7v1.5ZM38,543.1h.7v-1.5h-.7v1.5ZM35.7,542.5c-.3.1-.5.3-.8.4l-.2-.9c.3-.1.7-.3,1-.5v-1.8c-.3-.1-.7-.3-1-.4v-1c.4.1.7.2,1,.4v-1.9h.8v7.7h-.8v-2Z"/>
        <path class="cls-4" d="M35.3,533.5v-1l4.9-3.3h-4.9v-1h6.5v1l-4.9,3.3h4.9v1h-6.5Z"/>
        <path class="cls-4" d="M41.8,524h-.6c.4.3.7.8.7,1.5s-.5,1.5-1.4,1.5-1.5-.8-1.5-2.4v-.6h-.2c-.6,0-.9.3-.9,1s.2,1.1.5,1.5l-.8.2c-.3-.4-.5-1-.5-1.8,0-1.4.6-1.9,1.7-1.9h3.1v.9h-.1ZM40.4,524.1h-.8v.5c0,1,.2,1.5.8,1.5s.7-.3.7-.8-.3-1-.7-1.2Z"/>
        <path class="cls-4" d="M37.1,521.8v-.9h.7c-.5-.3-.8-.8-.8-1.5s.3-1.2.9-1.4c-.5-.3-.9-.8-.9-1.6s.6-1.5,1.7-1.5h3v1h-2.8c-.7,0-1.1.3-1.1.8s.4,1,.9,1.2h3.1v1h-2.8c-.7,0-1.1.3-1.1.8s.4,1,.9,1.2h3.1v1h-4.8Z"/>
        <path class="cls-4" d="M41.9,511.3c0,1.6-.9,2.4-2.4,2.4s-2.5-.8-2.5-2.3,1.1-2,2.2-2h.5v3.3c.9,0,1.4-.5,1.4-1.5s-.2-1.1-.5-1.5l.8-.2c.3.4.5,1,.5,1.8ZM39,512.7v-2.4h0c-.6,0-1.2.3-1.2,1.1s.4,1.2,1.2,1.3Z"/>
      </g>
    </g>
  </g>
  <g>
    <g>
      <path class="cls-4" d="M15.4,547.8c-.5-1.7-1.4-3.4-2.8-4.4v-1.6c1.4-1.2,2.3-3,2.8-4.7l1.5.6c-.2.7-.4,1.2-.8,1.9h1.3v6.1h-1.3c.3.5.5,1,.7,1.6h1c.2.4.4,1,.6,1.5h4.6c1,0,1.3.4,1.3,1.3v1.8h-1.7v-1.1c0-.3-.2-.4-.5-.4h-3.2c.2.5.3,1.1.5,1.6h-1.6c-.1-.4-.3-1-.4-1.6h-3.4v1.8h-1.5v-1.8h-2.9v-1.6h2.9v-1.4h1.5v1.4h3c-.2-.4-.3-.9-.5-1.3l-1,.4h-.1ZM9.6,544.1h1.1v-3.1h-1.1v-1.5h1.1v-2.2h1.4v2.2h1v1.5h-1v3.1h1v1.5h-1v1.9h-1.4v-1.9h-1.1v-1.5ZM24,538.3v8.5h-5.5v-8.5h5.5ZM16,539.7c-.6,1.1-1.3,2-2.2,2.9.9.8,1.7,1.8,2.2,2.9v-5.8ZM19.9,545.3h2.7v-5.4h-2.7v5.4Z"/>
      <path class="cls-4" d="M11.8,533.3v1.7l-1.4.3c0-3.9,0-8-.9-11.8l1.5-.7c.4,1.8.5,3.6.6,5.4h1.1v-6h1.3v1.7h1.5v-2.3h1.3v2.3h1.5v-1.7h1.3v4.5c1.3-1.5,2.1-3.4,2.7-5.3l1.5.8c-.8,2.4-2.1,4.3-3.9,6h4.4v1.5h-4.2c1.7,1.6,3.1,3.8,3.8,5.9l-1.5.9c-.5-1.9-1.4-3.9-2.7-5.4v4.6h-1.3v-1.7h-1.5v2.2h-1.3v-2.2h-1.5v1.7h-1.3v-6.1h-1c0,1.2.1,2.4.1,3.6h-.1ZM14,532.5h1.5v-2.8h-1.5v2.8ZM16.9,532.5h1.5v-2.8h-1.5v2.8ZM14,528.2h1.5v-2.8h-1.5v2.8ZM16.9,528.2h1.5v-2.8h-1.5v2.8Z"/>
      <path class="cls-4" d="M15,505.8h1.4v3.2c1-1.1,1.6-2,2.1-3.4l1.6.9c-.4.9-.7,1.4-1.3,2.2,1.1,0,3.6.2,4.5.7.8.4,1,1,1,1.8v2l-1.6.4v-2c0-.4,0-.8-.5-.9-.6-.2-2.1-.3-2.8-.3v3.3c3.4.6,4.6,2.6,4.9,5.9l-1.4.6c-.2-2.5-.8-4.4-3.5-4.9v2h-.8c.6.8,1,1.5,1.5,2.4l-1.5,1c-.6-1.5-1.1-2.5-2.3-3.7v3.5h-1.4v-4.7c-.6-.4-1.1-.6-1.7-.8v4.8h-1.4v-2.7c-.6.4-1,.6-1.6,1.1l-.7-1.4c.8-.7,1.4-1,2.4-1.5v-.8c-.9-.2-1.5-.3-2.4-.4v-1.7c.9.2,1.6.3,2.4.5v-2.1c-.8-.5-1.6-.9-2.4-1.4l.7-1.4c.6.3,1.1.6,1.6,1v-2.6h1.4v4.6c.7-.2,1.1-.4,1.7-.9v-4.4h.1ZM16.4,511.1v3.9c.7.5,1.1.9,1.6,1.5v-6.9c-.5.6-1,1.1-1.6,1.5ZM13.3,512.8v.6c.6.2,1.1.5,1.7.7v-2.1c-.6.3-1.1.5-1.7.7h0Z"/>
    </g>
    <g class="cls-9">
      <g class="cls-9">
        <g class="cls-9">
          <path class="cls-4" d="M20.8,499.2h-8.9v-3.1c0-1.8.8-2.9,2.3-2.9s1.8.7,2,1.8h0c.1-1.2,1-2,2-2,1.8,0,2.6,1.3,2.6,3.2v3.1h0ZM19.4,496.5c0-1.2-.4-1.8-1.2-1.8s-1.3.6-1.3,1.8v.9h2.6v-.9h-.1ZM15.5,496.7c0-1.2-.4-1.7-1.1-1.7s-1.1.4-1.1,1.6v.8h2.2v-.7h0Z"/>
          <path class="cls-4" d="M21,488.5c0,2.1-1.5,3.4-3.4,3.4s-3.5-1.4-3.5-3.4,1.4-3.5,3.5-3.5,3.4,1.3,3.4,3.5ZM17.4,486.8c-1,0-2,.6-2,1.7s.9,1.7,2,1.7,2.3-.5,2.3-1.7-.9-1.7-2.3-1.7Z"/>
          <path class="cls-4" d="M20.8,479.7h-1c.7.4,1.1,1.2,1.1,2.1s-.7,2.3-2,2.3-2.3-.7-2.3-3.2v-1.1h0c-1.1,0-1.4.6-1.4,1.5s.3,1.5.7,2h-1.5c-.3-.6-.5-1.4-.5-2.2,0-2,.8-2.8,2.8-2.8h1.4c.3,0,1.7,0,2.6,0v1.5h0ZM17.8,479.8v.8c0,1.2.4,1.9,1.1,1.9s.8-.4.8-1.1-.5-1.6-1.9-1.6h0Z"/>
        </g>
      </g>
      <g class="cls-9">
        <g class="cls-9">
          <path class="cls-4" d="M20.8,476.6h-6.6v-1.5h1.5c-.7,0-1.7-.8-1.7-1.8s0-.5,0-.5h1.7c0,.2-.1.5-.1.8,0,.6.3,1.4,2.4,1.4h2.7v1.7h.1Z"/>
        </g>
      </g>
      <g class="cls-9">
        <g class="cls-9">
          <path class="cls-4" d="M20.8,467.6h-.7c.6.5.9,1.2.9,2,0,2-1.6,2.8-3.5,2.8s-3.4-.9-3.4-2.8.3-1.5.9-2h-3.8v-1.7h9.6v1.7ZM17.5,467.6c-.9,0-2.1.4-2.1,1.5s1.1,1.4,2.1,1.4,2.1-.3,2.1-1.4-1.2-1.5-2.1-1.5Z"/>
          <path class="cls-4" d="M20.8,464.1h-6.6v-1.7h6.6v1.7ZM13,464.1h-1.6v-1.7h1.6v1.7Z"/>
          <path class="cls-4" d="M20.8,456.2h-3.7c-1,0-1.7.2-1.7,1.1s1,1.5,2.2,1.5h3.2v1.7h-6.6v-1.6h.9c-.7-.6-1-1.3-1-2.2,0-1.5,1-2.2,2.6-2.2h4.2v1.7h0Z"/>
          <path class="cls-4" d="M19.8,448.4h0c.6.4,1,1.2,1,2.1,0,1.8-1.4,2.7-3.3,2.7s-3.4-.8-3.4-2.8.3-1.5,1-2h-.9v-1.6h6c2.2,0,3.5,1.2,3.5,3.5s0,1.5-.4,2.3h-1.5c.3-.7.6-1.6.6-2.1,0-1.6-1-2-2.4-2h-.2ZM17.5,448.4c-1,0-2,.4-2,1.4s.9,1.5,2.1,1.5,2-.5,2-1.5-1-1.5-2-1.5h-.1Z"/>
          <path class="cls-4" d="M20.8,441.4h-8.9v-2.3c0-2.4.9-3.7,2.7-3.7s2.8,1.3,2.8,3.4v.8h3.4s0,1.8,0,1.8ZM16,439c0-1.2-.5-1.7-1.3-1.7s-1.4.6-1.4,1.7v.6h2.7v-.6Z"/>
          <path class="cls-4" d="M20.8,430.2h-1c.7.4,1.1,1.2,1.1,2.1s-.7,2.3-2,2.3-2.3-.7-2.3-3.2v-1.1h0c-1.1,0-1.4.6-1.4,1.5s.3,1.5.7,2h-1.5c-.3-.6-.5-1.4-.5-2.2,0-2,.8-2.8,2.8-2.8h1.4c.3,0,1.7,0,2.6-.1v1.5h0ZM17.8,430.4v.8c0,1.2.4,1.9,1.1,1.9s.8-.4.8-1.1-.5-1.6-1.9-1.6h0Z"/>
          <path class="cls-4" d="M19.3,427.4c.3-.5.4-1.1.4-1.7s-.2-1.1-.8-1.1-.7.5-.9,1.2c-.3,1.2-.8,1.8-1.9,1.8s-2-1.1-2-2.6,0-1,.2-1.9h1.3c-.2.7-.3,1.1-.3,1.6s.2,1,.7,1,.6-.4.8-1.1c.3-1.2.9-1.8,2-1.8s2.2,1.2,2.2,2.8-.1,1.3-.3,1.9h-1.4Z"/>
          <path class="cls-4" d="M19.3,421.7c.3-.5.4-1.1.4-1.7s-.2-1.1-.8-1.1-.7.5-.9,1.2c-.3,1.2-.8,1.8-1.9,1.8s-2-1.1-2-2.6,0-1,.2-1.9h1.3c-.2.7-.3,1.1-.3,1.6s.2,1,.7,1,.6-.4.8-1.1c.3-1.2.9-1.8,2-1.8s2.2,1.2,2.2,2.8-.1,1.3-.3,1.9h-1.4Z"/>
        </g>
      </g>
    </g>
  </g>
  <g>
    <rect class="cls-11" x="51.9" y="346.4" width="270" height="20.3" transform="translate(-169.6 543.5) rotate(-90)"/>
    <g>
      <path class="cls-4" d="M195.2,470.2c-.5,3-1.4,5.2-3.5,6.9,2.1,1.6,3.1,3.9,3.5,7.2l-2.2,1.2c0-2.7-.5-4.9-1.3-5.9v5.6h-2v-6.5c-.2,0-.5-.1-.8-.1v-2.3c.3,0,.6,0,.8.1v-7.1h2v5.4c1-1.6,1.2-3.2,1.3-5.7l2.2,1.2ZM189.1,472.7h-1.8l1.6,1.1s-.8,1.5-2.4,2.5h2v2h-2c1.6,1.1,2.4,2.5,2.4,2.5l-1.6,1.1h1.8v2.2h-9.5v-4.4c-.2-.2-.6-.5-.9-.6l.2-2.6c.3.1.5.3.7.5v-6.5h9.5v2.2ZM181.6,472.7v9.1h5.4c-.2-.9-.7-1.7-1.4-2.5v2.1h-1.7v-1.1c-.3.2-.8.3-1.3.7l-.5-1.7c1-.5,1.8-.7,1.8-.7v-.4h-2v-2h2v-.4c-.5-.3-1.1-.5-1.8-.7l.4-1.8c.7.3,1,.5,1.3.7v-1h1.7v2.1c.7-.8,1.2-1.8,1.3-2.5h-5.4Z"/>
      <path class="cls-4" d="M192.9,457.8v-.9c0-2.1,0-2.2-1.1-2.2h-7.6v7.4h-2c.5.2.9.5,1.3.7h11.7v2.2h-9c.7.5,1.2,1,1.5,1.5l-2.8.7c-1.6-1.9-3.5-3.3-6.1-4l.6-2.3c1,.3,1.8.6,2.5,1v-7.3h-3.2v-2.3h3.2v-1.6h2.3v1.6h7.2c3.3,0,3.7,0,3.8,4.4l-2.3,1ZM190.7,458.8s-2.4.9-4.4,2.1l-1.1-2c1.8-1.3,4.1-2.2,4.1-2.2l1.3,2.2Z"/>
    </g>
    <g>
      <path class="cls-4" d="M185.8,443.5c-1.1,1.3-2.3,1.8-3.9,1.8s-3-.7-3.9-1.8l.5-.5c.8.7,2,1.4,3.4,1.4s2.6-.6,3.4-1.4l.5.5Z"/>
      <path class="cls-4" d="M184.7,440.1c-.5-2.2-1.9-2.6-3.5-2.6v1.9c.7,0,1.5,0,2,0v1.1c-.4,0-1.2,0-2,0,0,.7,0,1.3,0,1.7h-1.1c0-.4,0-1,0-1.7-.7,0-1.3,0-1.7,0v-1.1c.4,0,1,0,1.7,0v-1.9c-.6,0-1.1,0-1.7,0v-1.1c.6,0,1.1,0,1.7,0,0-.7,0-1.3,0-1.8h1.1c0,.4,0,1,0,1.7,2.5,0,3.8.9,4.5,2.7l-1,1Z"/>
      <path class="cls-4" d="M182.4,426.7c0,.9,0,2.2,0,3.5s0,2.6,0,3.5h-1.1c0-.8,0-1.9,0-3.1s0-2.9,0-3.9h1.1Z"/>
      <path class="cls-4" d="M184.6,424.8c-.6-3.2-2.4-4.5-4.1-5,0,.7,0,1.7,0,2.6.7.5,1.4,1.2,1.9,2.1l-.8.9c-.7-1.6-2.2-2.7-3.4-3l.3-1.1c.3.1.6.3.8.4v-.5c0-.8,0-1.5,0-2.1l.6-.7c3.1,1,4.6,2.4,5.5,5.3l-1,1Z"/>
      <path class="cls-4" d="M184.9,417.6c-1.2-1.4-2.3-1.7-4.5-1.7s-.9,0-1.4,0v-1.1c3.5,0,4.5,0,6.5,1.7l-.7,1.1ZM184.9,414c-.5,0-2.2,0-3.7,0s-2.1,0-2.6,0v-1.2c1.3,0,2.6,0,3.8,0h1.4c-.2-.6-1.5-1.9-2.8-2.6l.8-.8c1.5.9,2.6,1.9,3.6,3.7l-.5.8Z"/>
      <path class="cls-4" d="M185.6,403h-.4v3.8h.4v1h-2.4c.1.3.2.7.3,1l-1.1.4c-.1-1-.4-1.9-.8-2.9-.3.2-.7.6-1,.9.3.6.6,1.2.6,1.2l-1,.6s-.6-2-2-2.9l.3-1.2s.3.2.5.4v-2.8h.9s1.4,1,2.2,2.6v-3h3.7v1ZM182.9,403v3.8h1.4v-3.8h-1.4ZM179.8,406.2c0,0,.1.2.2.2.3-.3.8-.7,1.1-1-.4-.7-.8-1.2-1.3-1.7v2.5Z"/>
      <path class="cls-4" d="M185.4,400.9c-.8-.8-2.1-1.4-3.4-1.4s-2.7.7-3.4,1.4l-.5-.5c.9-1.1,2.1-1.8,3.9-1.8s2.8.5,3.9,1.8l-.5.5Z"/>
      <path class="cls-4" d="M185,388.3l-1.7.6v2.4l1.7.6v1.2l-6.4-2.2v-1.6l6.4-2.2v1.2ZM182.3,389.2s-1.9.7-2.5.8h0c.6.1,2.5.9,2.5.9v-1.7Z"/>
      <path class="cls-4" d="M185,386.3h-6.4v-1.2h5.3v-2.9h1.1v4.1Z"/>
      <path class="cls-4" d="M185,381.2h-6.4v-1.2h5.3v-2.9h1.1v4.1Z"/>
      <path class="cls-4" d="M185,376h-6.4v-1.3h6.4v1.3Z"/>
      <path class="cls-4" d="M185,366.4l-1.7.6v2.4l1.7.6v1.2l-6.4-2.2v-1.6l6.4-2.2v1.2ZM182.3,367.3s-1.9.7-2.5.8h0c.6.1,2.5.9,2.5.9v-1.7Z"/>
      <path class="cls-4" d="M185,364.4h-6.4v-1.3h6.4v1.3Z"/>
      <path class="cls-4" d="M185,357.9l-2.6,1.3v1.2h2.6v1.2h-6.4v-2.6c0-1.2.7-2.1,1.9-2.1s1.6.5,1.8,1.2l2.8-1.6v1.4ZM181.5,359.2c0-.6-.3-1-1-1s-.9.4-.9,1v1.2h1.9v-1.2Z"/>
      <path class="cls-4" d="M185.5,350.8c0,.6,0,.9-.9.9h-1.1v1.3c1.1.4,1.8,1,2.1,2.5l-1,.5c-.2-1-.5-1.6-1.1-1.9v1.5h-1v-1.8c-.2,0-.5,0-.8,0v.4h-.4c.3.4.6,1,.7,1.3l-1,.5c-.2-.7-.5-1.2-.5-1.2-.4.5-.7,1.1-.7,1.1l-.8-.6s0-.1.2-.3h-.9v-3s.4-.2.7-.5c-.3-.5-.8-.9-.8-.9l.7-.7s.5.5.8,1c.1-.1.2-.3.3-.4-.4-.6-1-1-1-1l.7-.7s.5.4.8.9c.1-.3.3-.7.4-1l1,.5c-.2.4-.4.7-.6,1.1h.4v.6h.8v-1.8h1v1.8h.8c.2,0,.2,0,.2-.2v-.7c0-.3,0-.3-.9-.4l.5-.9c1.3.2,1.4.4,1.4,1.1v1.2ZM179.4,354.9c.2-.3.5-.7.7-.9-.3-.4-.7-.7-.7-.7v1.6ZM180.9,350.9c-.4.6-.8,1-1.3,1.4.5.3.9.7,1.3,1.1v-2.5ZM181.8,351.7v1c.3,0,.6,0,.8,0v-1.1h-.8Z"/>
      <path class="cls-4" d="M183.6,340.7c-.1.3-.3.6-.5.9,2.3,0,2.4.5,2.5,2.1l-1,.4c0-.2,0-.4,0-.6,0-.8-.2-.9-1.2-.9v1.6c1.4.4,2,1.5,2.3,2.5l-1,.6c-.2-1-.5-1.7-1.3-2v.8h-.5c.2.3.4.8.6,1.2l-.9.4c-.2-.6-.5-1.3-.8-1.7v1.6h-.9v-2.3c-.2-.1-.4-.2-.6-.3v2.3h-.8v-1.1c-.4.3-.8.7-.8.7l-.3-1s.5-.4,1.1-.7v-.3c-.3,0-.8-.2-1.2-.2v-1c.4,0,.9.1,1.2.2v-.8c-.5-.5-1.1-.7-1.1-.7l.3-1s.4.2.8.6v-1.2h.8v2c.2,0,.4-.2.6-.3v-2.1h.9v1.5c.3-.4.6-1,.9-1.6l.9.5ZM181.8,344.8c.2.2.5.4.7.6v-3.1c-.2.2-.4.4-.7.6v1.9ZM180.9,343.4c-.2.1-.4.2-.6.3v.3c.3,0,.4.1.6.3v-.9Z"/>
      <path class="cls-4" d="M184.5,339.4c-.7-.6-1.6-.8-1.6-.8l.4-.9s1.1.2,1.9.9l-.8.9ZM183,333.2c-.2.1-.3.3-.5.4,0,.3.3,2,.3,5.3l-1,.2v-.6c0-.2,0-.4,0-.6-.5-.8-1.2-1.4-1.2-1.4l.3-1s.5.5.9,1.1c0-.7,0-1.6-.1-2.1-.2.3-.4.5-.4.5l-.3-.6v.5c0,.5-.2.7-.6.7h-.9v1.2l.2-.8c1,.5,1.5,1.2,1.7,2.6l-.9.5c-.1-1.3-.4-1.7-.9-2.1v1.3h.7v1h-1.6v-3h-.4v-1h.4v-3h1.4v.8l.2-.4c.7.2.8.3.8,1.1v.4c.2-.3.7-1,1.4-1.7l.6.8ZM185.5,336.7c0,.7,0,.8-.5.8h-1.9v-1h1.4c.1,0,.1,0,.1-.2v-1.3c0-.3,0-.3-.7-.4l.3-1c1.3.2,1.4.4,1.4,1.3v1.8ZM184.3,335.1c-.3.4-.6.8-.8,1.2l-.7-.6c.2-.5.5-.9.7-1.3l.8.6ZM179.6,333.2v1.4h.5c0,0,0,0,0-.2v-.6c0-.2,0-.2-.4-.3v-.3c.1,0-.2,0-.2,0ZM185.3,332.9c-.7.3-1.5.7-1.9,1l-.4-.9c.4-.3,1.2-.8,1.7-1l.6.9Z"/>
      <path class="cls-4" d="M185.6,325.3h-.6v4.3h.6v1.1h-6.9v-6.5h6.9v1.1ZM179.8,325.3v4.3h4.2v-4.3h-4.2Z"/>
      <path class="cls-4" d="M185.8,313.2c-1.1,1.3-2.3,1.8-3.9,1.8s-3-.7-3.9-1.8l.5-.5c.8.7,2,1.4,3.4,1.4s2.6-.6,3.4-1.4l.5.5Z"/>
      <path class="cls-4" d="M185.5,306.7c0,.6,0,.9-.9.9h-1.1v1.3c1.1.4,1.8,1,2.1,2.5l-1,.5c-.2-1-.5-1.6-1.1-1.9v1.5h-1v-1.8c-.2,0-.5,0-.8,0v.4h-.4c.3.4.6,1,.7,1.3l-1,.5c-.2-.7-.5-1.2-.5-1.2-.4.5-.7,1.1-.7,1.1l-.8-.6s0-.1.2-.3h-.9v-3s.4-.2.7-.5c-.3-.5-.8-.9-.8-.9l.7-.7s.5.5.8,1c.1-.1.2-.3.3-.4-.4-.6-1-1-1-1l.7-.7s.5.4.8.9c.1-.3.3-.7.4-1l1,.5c-.2.4-.4.7-.6,1.1h.4v.6h.8v-1.8h1v1.8h.8c.2,0,.2,0,.2-.2v-.7c0-.3,0-.3-.9-.4l.5-.9c1.3.2,1.4.4,1.4,1.1v1.2ZM179.4,310.8c.2-.3.5-.7.7-.9-.3-.4-.7-.7-.7-.7v1.6ZM180.9,306.8c-.4.6-.8,1-1.3,1.4.5.3.9.7,1.3,1.1v-2.5ZM181.8,307.6v1c.3,0,.6,0,.8,0v-1.1h-.8Z"/>
      <path class="cls-4" d="M185.6,302.5h-2.9c.2.2.4.5.5.8l-1.1.4c-.4-.9-1.1-1.6-2-2.1l.6-.9c.5.2.9.6,1.3,1h3.7v1ZM179.8,303.5c-.4-.7-.9-1.4-1.6-1.7l.4-.9c.9.6,1.7,1.3,2.1,2.1l-.9.5ZM184.5,299.8v-.7c0-.7,0-.7-.4-.7h-2.4v2.2h-1v-4.4h1v1.2h2.5c1.4,0,1.5,0,1.5,2.1l-1.1.4ZM179.5,300.3h-1v-3.9h1v3.9Z"/>
      <path class="cls-4" d="M185.6,289.5h-.5v4.2h.5v1h-7.2v-6.3h7.2v1ZM179.4,289.5v4.2h1.8v-4.2h-1.8ZM182.2,289.5v4.2h1.9v-4.2h-1.9Z"/>
      <path class="cls-4" d="M185.4,287.1c-.8-.8-2.1-1.4-3.4-1.4s-2.7.7-3.4,1.4l-.5-.5c.9-1.1,2.1-1.8,3.9-1.8s2.8.5,3.9,1.8l-.5.5Z"/>
      <path class="cls-4" d="M185,278.6h-.7c-1.3,0-2.1-.9-2.6-2-.5-1-.9-1.3-1.4-1.3s-.9.4-.9,1,.5,1,1.2,1.1l-.3,1.1c-1.2,0-2-1-2-2.2s.8-2.2,1.8-2.2,1.6.5,2.2,1.8c.4.8.9,1.3,1.5,1.4v-3.2h1.1v4.5Z"/>
      <path class="cls-4" d="M181.8,273.2c-1.9,0-3.4-.7-3.4-2.4s1.4-2.4,3.4-2.4,3.4.8,3.4,2.4-1.3,2.4-3.4,2.4ZM181.8,269.5c-1.4,0-2.3.4-2.3,1.2s.9,1.2,2.3,1.2,2.3-.4,2.3-1.2-.9-1.2-2.3-1.2Z"/>
      <path class="cls-4" d="M185,267.2h-.7c-1.3,0-2.1-.9-2.6-2-.5-1-.9-1.3-1.4-1.3s-.9.4-.9,1,.5,1,1.2,1.1l-.3,1.1c-1.2,0-2-1-2-2.2s.8-2.2,1.8-2.2,1.6.5,2.2,1.8c.4.8.9,1.3,1.5,1.4v-3.2h1.1v4.5Z"/>
      <path class="cls-4" d="M179.6,260.3l1.6.2h0c-.3-.2-.5-.7-.5-1.3,0-1.1.6-2.2,2.2-2.2s2.3,1,2.3,2.4-.6,2.1-1.6,2.4l-.3-1.1c.6-.2.9-.7.9-1.3s-.4-1.2-1.3-1.2-1.3.6-1.3,1.2.3,1,.7,1.1l-.2,1.1-3.5-.3v-4h1v2.9Z"/>
      <path class="cls-4" d="M185.2,256.6l-6.8-2.4v-1l6.8,2.4v1Z"/>
      <path class="cls-4" d="M181.8,252.8c-1.9,0-3.4-.7-3.4-2.4s1.4-2.4,3.4-2.4,3.4.8,3.4,2.4-1.3,2.4-3.4,2.4ZM181.8,249.1c-1.4,0-2.3.4-2.3,1.2s.9,1.2,2.3,1.2,2.3-.4,2.3-1.2-.9-1.2-2.3-1.2Z"/>
      <path class="cls-4" d="M180.2,243.2c-.6.2-.8.7-.8,1.3s.6,1.4,2.2,1.4c-.4-.2-.8-.8-.8-1.5,0-1.2.6-2.3,2.1-2.3s2.3.9,2.3,2.3-1,2.6-3.3,2.6-3.5-1.1-3.5-2.6.4-1.8,1.3-2.2l.5.9ZM184.2,244.6c0-.6-.4-1.2-1.2-1.2s-1.2.6-1.2,1.2.4,1.1,1,1.3c.9,0,1.5-.6,1.5-1.3Z"/>
      <path class="cls-4" d="M185.2,241.9l-6.8-2.4v-1l6.8,2.4v1Z"/>
      <path class="cls-4" d="M181.8,238.1c-1.9,0-3.4-.7-3.4-2.4s1.4-2.4,3.4-2.4,3.4.8,3.4,2.4-1.3,2.4-3.4,2.4ZM181.8,234.5c-1.4,0-2.3.4-2.3,1.2s.9,1.2,2.3,1.2,2.3-.4,2.3-1.2-.9-1.2-2.3-1.2Z"/>
      <path class="cls-4" d="M185,231.2c-2,0-4.3-1-5.4-2.1v3h-1.1v-4.6h.9c1.3,1.6,3.8,2.4,5.6,2.4v1.3Z"/>
    </g>
    <g>
      <path class="cls-4" d="M195,443.5c-1.1,1.3-2.3,1.8-3.9,1.8s-3-.7-3.9-1.8l.5-.5c.8.7,2,1.4,3.4,1.4s2.6-.6,3.4-1.4l.5.5Z"/>
      <path class="cls-4" d="M194.8,441.1h-4c.3.3.4.5.6.7l-1.3.3c-.5-.7-1.6-1.4-2.8-1.8l.3-1c.8.2,1.4.5,1.9.8h5.2v1ZM193.4,434.6c1,.4,1.5.9,1.5,1.3,0,1-2.2,2-3.8,2.3l.2,1.5h-1.1c0,.1-.2-1.3-.2-1.3-.8,0-1.7.2-2.5.2v-1c.8,0,1.6,0,2.4-.2l-.3-2.4h1.1c0-.1.3,2.2.3,2.2,1.8-.3,2.7-1,2.7-1.3s-.3-.3-1.1-.6l1-.8ZM189.3,435.7c-.6.6-1.2,1.4-1.2,1.4l-.6-.7s.5-.7,1.1-1.3l.7.7Z"/>
      <path class="cls-4" d="M194.8,418.8c-.7,1.9-1.9,2.6-3.3,3.2.3.3.6.5.8.9h1.4c0-.6-.1-1.1-.2-1.7h1c.3,1.8.4,3.7.4,3.7l-1,.2s0-.6,0-1.2h-.9c.3.5.5,1,.6,1.5l-1,.4c-.1-.9-.5-1.7-.9-2.6v2.4h-.9v-3h-.4v2.4h-.9v-2.4h-.4v2.8h-.9v-2.8h-.6v-1.1h.6v-2.9h.9v2.9h.4v-2.6h.9v2.6h.4v-3.1h.9v2.7c.3-.2.6-.3,1-.6-.2-.4-.6-.7-.9-1l.6-.9c.4.3.7.8,1,1.2.3-.5.5-.9.7-1.6l1,.6Z"/>
      <path class="cls-4" d="M194.8,403.3h-.4v3.7h.4v1h-2.5c.1.3.2.5.2.7l-1,.5c-.2-1.2-.5-2.3-1-3.6v3.4h-.9v-2.9h-.6v2.2h-.9v-2.2h-.7v-1h.7v-1.6h.8c-.3-.2-.7-.5-1.1-.7l.6-.9c.6.4,1,.7,1.3,1.1v-1.2h.9v2.3c.2.3.4.7.6,1.1v-2.9h3.7v1ZM192,403.3v3.7h.4v-3.7h-.4ZM193.2,403.3v3.7h.5v-3.7h-.5ZM189,405.1h.6v-.8c-.2-.2-.4-.5-.6-.7v1.5Z"/>
      <path class="cls-4" d="M194.5,400.9c-.8-.8-2.1-1.4-3.4-1.4s-2.7.7-3.4,1.4l-.5-.5c.9-1.1,2.1-1.8,3.9-1.8s2.8.5,3.9,1.8l-.5.5Z"/>
      <path class="cls-4" d="M193.2,385.5c-.2.3-.4.6-.6,1,1,.5,1.7,1.2,2.2,2.1l-.9.9c-.3-.8-.9-1.5-1.8-2-.2.5-.4.9-.5,1.4.4.2.8.4,1.2.6.9.5,1.3,1.2,1.3,1.8s-.6,1.3-1.4,1.3-2.2-.4-2.2-2.6,0-.3,0-.5c-.5-.2-1-.5-1.5-.7,0,.8,0,1.7.1,2.4h-1.1c0-.2,0-.5,0-.8,0-.9,0-1.8-.1-2.4l.7-.7c.8.5,1.5.8,2.1,1.1.1-.5.3-.9.5-1.4-.4-.1-.8-.2-1.3-.3l.2-1.1c.5,0,1,.2,1.5.4.2-.4.4-.8.6-1.1l1.1.6ZM191.4,390.1c0,1.3.9,1.6,1.1,1.6s.4-.2.4-.4c0-.4-.6-.8-1.6-1.3h0Z"/>
      <path class="cls-4" d="M193.9,382.6c-.2-1.1-.5-1.7-1.1-2,0,.2,0,.4,0,.6,0,1-.7,1.4-1.5,1.4s-1.2-.3-1.4-.8c-.1-.3-.2-.6-.2-.8s0-.2,0-.3c-.2,0-.3,0-.5,0,0,1.2,0,2.4,0,3.5h-1c0-1.1,0-2.3,0-3.5h-.9v-1.1c.3,0,.6,0,.9,0v-.5c0-.7,0-1.4,0-2.2h1c0,.9,0,1.8,0,2.7h.4c.3,0,.7,0,1,0,.3-.1.7-.2,1.1-.2h0c1.8,0,2.6,1,3.1,2.5l-1,.7ZM191.4,381.7c.3,0,.5-.3.5-.5s-.2-.5-.7-.5-.5,0-.5.5.2.6.6.6h0ZM188.4,378.4c-.3.2-.7.4-1,.6l-.3-.6c.3-.2.7-.5,1-.6l.3.6ZM188.1,377.4c-.3.2-.7.4-1,.6l-.3-.5c.3-.2.6-.5,1-.7l.3.6Z"/>
      <path class="cls-4" d="M194.3,370c.1.8.2,1.6.2,2.3,0,2.3-.8,3.1-1.8,3.1s-1.8-1.3-1.8-2.5,0-.9.1-1.2c-.3.2-.7.4-1.2.6.1,1.1.2,2.3.3,3.3h-1.1s0-.1,0-.3c0-.7,0-1.6-.2-2.6-.4.2-.8.3-1.1.5l-.3-1.1c.4-.1.8-.3,1.3-.5,0-.8-.2-1.5-.4-2.1h1c0,.4.2,1,.2,1.7.8-.4,1.6-.9,2-1.4l.7.8c-.4.5-.6,1.4-.6,2.2s.3,1.6.9,1.6h0c.5,0,.7-.9.7-1.8s-.2-1.8-.4-2.5h1.2Z"/>
      <path class="cls-4" d="M193.3,364.2c0,0,0-.1,0-.2,0-1.3-.9-2.3-1.8-2.3s-1.3.2-1.3,1.3.5,1.7,1.2,2.3c1.1,0,2.2,0,3.2-.1v1.1c-.5,0-1.3,0-2.1,0,.4.3.8.6,1.2.9l-1,.7c-.5-.5-1.3-1.1-1.9-1.6-.3,0-.6,0-.9,0,0,.4.1.8.2,1.2l-1.1.2c0-.4,0-.9-.1-1.4-.5,0-1,0-1.5,0v-1.1c.4,0,.8,0,1.2,0v-.3c0,0,.5-.5.5-.5.2.3.6.6.9.9h.2c-.6-.8-.9-1.7-.9-2.5,0-1.4,1.1-2.3,2.2-2.3s2.9,1.3,3,3.1l-1.1.6Z"/>
      <path class="cls-4" d="M193.2,359.5c-.9-.6-2.2-1.2-3.5-1.7,0,.4,0,.8,0,1.2h-1.1c0-.2,0-.6,0-.9s0-.4,0-.6c-.4-.1-.9-.2-1.3-.3v-1.1c.4,0,.8.2,1.2.3,0-.4,0-.8,0-1.1h1c0,.5,0,.9,0,1.4,1.5.5,3,1.2,4.2,1.8l-.7,1ZM194.3,353c-.3.3-.6.6-.8.9.8.1,1.2.8,1.2,1.6s-.5,1.9-1.3,1.9-1.4-.4-1.4-1.6,0-.5.1-.8c-.2,0-.5,0-.7,0-.6,0-1.2,0-1.6-.5l.4-1c.4.4.8.5,1.2.5s.6,0,1,0c.3-.7.6-1.3,1-1.7l.9.7ZM193,355.1c-.1.3-.2.6-.2.8s.1.6.4.6h0c.3,0,.5-.4.5-.8s-.2-.6-.6-.6h-.2ZM190,352.8c-.3.6-.7,1.6-.8,2.3l-1-.4c.2-.9.5-1.8.8-2.4l1,.5Z"/>
      <path class="cls-4" d="M193.4,347.9h0c0-1.9-1.2-2.8-2.4-2.8s-1.9.6-2.1,1.8c1.5.3,3.4.8,4.2,1.3.7.4,1.1,1,1.1,1.5,0,1.1-1.4,1.6-2.5,1.6-2,0-3.8-1.5-3.8-3.8s1.5-3.5,3.2-3.5,3.3,1.1,3.5,3.2l-1.1.7ZM191.7,350.3c.2,0,.5,0,.7,0,.4-.1.5-.2.5-.4,0-.6-2.1-1.4-4.1-1.7.3,1.5,1.7,2.2,2.8,2.2Z"/>
      <path class="cls-4" d="M195,336.2c-1.1,1.3-2.3,1.8-3.9,1.8s-3-.7-3.9-1.8l.5-.5c.8.7,2,1.4,3.4,1.4s2.6-.6,3.4-1.4l.5.5Z"/>
      <path class="cls-4" d="M194.8,334.6h-7.2v-3.2h3.3v2.2h3.9v1ZM188.5,332.4v1.2h.4v-1.2h-.4ZM189.6,332.4v1.2h.5v-1.2h-.5ZM194,329.8v3h-2.6v-3.4h2.3c0-.7,0-.8-.5-.8h-2.3v2.3h-3.3v-3.3h5.6c1.3,0,1.5,0,1.5,1.8l-.7.3ZM192.3,330.5v1.5h.8v-1.5h-.8ZM188.5,328.7v1.3h.4v-1.3h-.4ZM189.6,328.7v1.3h.5v-1.3h-.5Z"/>
      <path class="cls-4" d="M190.5,319.5c-.1.4-.3.9-.5,1.2h.7v4.2h-.8c.2.4.4.9.6,1.3l-1.1.4c-.3-1.5-.9-2.4-2-3.3v-1.1c1.1-.9,1.7-1.8,2-3.3l1.1.4ZM194.8,320.9h-.4v4h.4v1h-3.5v-6h3.5v1ZM192.3,320.9v4h1.2v-4h-1.2ZM189.7,321.3c-.4.7-.9,1.2-1.5,1.7.6.5,1.1,1,1.5,1.7v-3.4Z"/>
      <path class="cls-4" d="M194.7,313.3c0,.5-.2.9-.9.9h-2.2v1c1.5.1,2.5.8,3.2,2.6l-.9.6c-.6-1.7-1.3-2.1-2.3-2.2v2h-1v-.6l-.7.7s-.7-1-2.3-1.3l.2-1c.3,0,.5,0,.8.2v-1.2h-1.1v-1h1.1v-2.5h1v2.5h1.1v-2.9h1v2.1h1.9c.2,0,.2,0,.2-.2v-.4c0-.4,0-.5-1.1-.6l.5-1.1c1.2.2,1.6.5,1.6,1.3v1.1ZM189.5,315v1.6c.6.3,1,.7,1.1.9v-2.5h-1.1Z"/>
      <path class="cls-4" d="M194.5,310.2c-.8-.8-2.1-1.4-3.4-1.4s-2.7.7-3.4,1.4l-.5-.5c.9-1.1,2.1-1.8,3.9-1.8s2.8.5,3.9,1.8l-.5.5Z"/>
      <path class="cls-4" d="M194.3,297.6c0,.1,0,.2,0,.4,0,.5-.2.9-.6.9.4.3.6.9.6,1.6s-.5,1.4-1.2,1.4h0c-.9,0-1.3-.5-1.6-1.6-.1-.6-.3-1.1-.6-1.1s-.5.2-.5.8.3,1.1.7,1.4l-.8.5c-.5-.4-.8-1.1-.8-1.9,0-1.3.5-1.9,1.5-1.9h2c.3,0,.4-.2.4-.4s0-.2,0-.2l1,.2ZM191.8,299.2c.2.2.3.5.4.9.1.5.3.7.7.7h0c.3,0,.5-.2.5-.6s-.2-.9-.6-1h-.9Z"/>
      <path class="cls-4" d="M194.2,296.8h-6.4v-1.2h6.4v1.2Z"/>
      <path class="cls-4" d="M194.2,294.3h-6.4v-1.2h6.4v1.2Z"/>
      <path class="cls-4" d="M189,291.9h-1.2v-1.2h1.2v1.2ZM194.2,291.9h-4.6v-1.2h4.6v1.2Z"/>
      <path class="cls-4" d="M194.3,285.4c0,.1,0,.2,0,.4,0,.5-.2.9-.6.9.4.3.6.9.6,1.6s-.5,1.4-1.2,1.4h0c-.9,0-1.3-.5-1.6-1.6-.1-.6-.3-1.1-.6-1.1s-.5.2-.5.8.3,1.1.7,1.4l-.8.5c-.5-.4-.8-1.1-.8-1.9,0-1.3.5-1.9,1.5-1.9h2c.3,0,.4-.2.4-.4s0-.2,0-.2l1,.2ZM191.8,287c.2.2.3.5.4.9.1.5.3.7.7.7h0c.3,0,.5-.2.5-.6s-.2-.9-.6-1h-.9Z"/>
      <path class="cls-4" d="M189,284.6h-1.2v-1.2h1.2v1.2ZM194.2,284.6h-4.6v-1.2h4.6v1.2Z"/>
      <path class="cls-4" d="M194.2,282.2h-4.6v-1h.5c-.4-.3-.6-.7-.6-1.5l1-.2c0,.2,0,.3,0,.5,0,.6.2.9.7,1.1h3.1v1.2Z"/>
      <path class="cls-4" d="M192.5,278.9h-1.1v-3.1h1.1v3.1Z"/>
      <path class="cls-4" d="M194.2,274.8h-4.6v-1h.5c-.4-.3-.6-.7-.6-1.5l1-.2c0,.2,0,.3,0,.5,0,.6.2.9.7,1.1h3.1v1.2Z"/>
      <path class="cls-4" d="M191,268.2c-.4.3-.7.9-.7,1.4s.2.7.4.7.4-.2.5-.9c.3-1.2.7-1.8,1.6-1.8s1.4.7,1.4,2-.3,1.6-.9,2l-.8-.5c.5-.4.8-1,.8-1.6s-.2-.7-.5-.7-.5.3-.7,1.1c-.2,1.1-.7,1.6-1.4,1.6s-1.3-.7-1.3-1.9.3-1.5.7-1.9l.8.5Z"/>
      <path class="cls-4" d="M194.2,265.6l-4.6,1.7v-1.3l2.5-.9c.3,0,.7-.2,1-.2h0c-.3,0-.7-.1-1-.2l-2.5-.8v-1.2l4.6,1.7v1.3Z"/>
      <path class="cls-4" d="M193.2,256c.8.7,1.1,1.6,1.1,3s-1.3,3.3-3.4,3.3-3.4-1.5-3.4-3.5,1.3-3.2,2.9-3.2,2.3.5,2.3,1.8-.1.7-.4.9c.3.2.5.6.5,1,0,1-.7,1.5-1.6,1.5-1.4,0-2.3-.8-2.3-1.8s.2-.7.5-.8h-.4c0,0,.2-1.1.2-1.1,0,0,1.8.3,2,.4,0,0,.2,0,.2,0,.3,0,.4-.2.4-.3h0c0-.4-.4-.8-1.4-.8s-2.3.7-2.3,2.3,1.1,2.7,2.7,2.7,2.7-1.1,2.7-2.6-.3-2-1-2.7l.5-.4ZM189.9,259.2c0,.4.4.8,1.3.8s.7-.3.7-.6c0-.5-.3-.6-1.5-.8-.3,0-.5.2-.5.6Z"/>
      <path class="cls-4" d="M194.2,249.6h-2.9c-.6,0-.8.2-.8.7s.3.7.8.7h2.9v1.2h-2.9c-.6,0-.8.2-.8.7s.3.6.7.7h3.1v1.2h-4.6v-1.1h.5c-.4-.2-.6-.6-.6-1.3s.3-1,.7-1.2c-.4-.2-.7-.7-.7-1.4s.6-1.4,1.5-1.4h3.2v1.2Z"/>
      <path class="cls-4" d="M189,247.3h-1.2v-1.2h1.2v1.2ZM194.2,247.3h-4.6v-1.2h4.6v1.2Z"/>
      <path class="cls-4" d="M194.2,245.2h-.8l-2.9-2.4v2.2h-1v-3.7h.8l2.8,2.3v-2.5h1v3.9Z"/>
      <path class="cls-4" d="M194.2,240.2h-1.3v-1.3h1.3v1.3Z"/>
      <path class="cls-4" d="M193.6,233.6c.5.4.7.9.7,1.8,0,1.3-.8,2.4-2.4,2.4s-2.4-1-2.4-2.4.2-1.3.6-1.8l.9.4c-.4.3-.6.7-.6,1.2s.4,1.4,1.4,1.4,1.5-.7,1.5-1.4-.2-1-.6-1.2l.9-.4Z"/>
      <path class="cls-4" d="M194.3,228.6c0,.1,0,.2,0,.4,0,.5-.2.9-.6.9.4.3.6.9.6,1.6s-.5,1.4-1.2,1.4h0c-.9,0-1.3-.5-1.6-1.6-.1-.6-.3-1.1-.6-1.1s-.5.2-.5.8.3,1.1.7,1.4l-.8.5c-.5-.4-.8-1.1-.8-1.9,0-1.3.5-1.9,1.5-1.9h2c.3,0,.4-.2.4-.4s0-.2,0-.2l1,.2ZM191.8,230.2c.2.2.3.5.4.9.1.5.3.7.7.7h0c.3,0,.5-.2.5-.6s-.2-.9-.6-1h-.9Z"/>
      <path class="cls-4" d="M194.2,227.8h-6.4v-1.2h2.3c-.3-.2-.5-.7-.5-1.3,0-1.2.8-2,2.4-2s2.4.8,2.4,2-.3,1.2-.6,1.4l.5.2v.8ZM192.8,226.6c.3-.2.6-.5.6-1s-.5-1.1-1.5-1.1-1.4.4-1.4,1.1.4,1,1,1h1.3Z"/>
    </g>
  </g>
</svg>